<svg width="353" height="33" viewBox="0 0 353 33" fill="none" xmlns="http://www.w3.org/2000/svg">
<rect x="0.670532" y="0.333008" width="352" height="32" rx="8" fill="#A7A5A5"/>
<path d="M163.267 13.3983C163.221 12.9949 163.034 12.6824 162.704 12.4608C162.375 12.2364 161.96 12.1242 161.46 12.1242C161.102 12.1242 160.792 12.181 160.531 12.2947C160.27 12.4055 160.067 12.5589 159.922 12.7549C159.78 12.9481 159.709 13.1682 159.709 13.4154C159.709 13.6228 159.757 13.8018 159.853 13.9523C159.953 14.1029 160.082 14.2293 160.241 14.3316C160.403 14.431 160.576 14.5148 160.761 14.583C160.946 14.6483 161.123 14.7023 161.294 14.7449L162.146 14.9665C162.424 15.0347 162.71 15.127 163.003 15.2435C163.295 15.36 163.567 15.5134 163.817 15.7037C164.067 15.8941 164.268 16.1299 164.422 16.4111C164.578 16.6924 164.656 17.029 164.656 17.4211C164.656 17.9154 164.528 18.3543 164.272 18.7378C164.02 19.1214 163.652 19.4239 163.169 19.6455C162.689 19.8671 162.108 19.9779 161.426 19.9779C160.772 19.9779 160.207 19.8742 159.73 19.6668C159.253 19.4594 158.879 19.1654 158.609 18.7847C158.339 18.4012 158.19 17.9466 158.162 17.4211H159.483C159.508 17.7364 159.611 17.9992 159.79 18.2094C159.971 18.4168 160.203 18.5716 160.484 18.6739C160.768 18.7733 161.079 18.8231 161.417 18.8231C161.79 18.8231 162.12 18.7648 162.41 18.6483C162.703 18.529 162.933 18.3643 163.101 18.154C163.268 17.941 163.352 17.6924 163.352 17.4083C163.352 17.1498 163.278 16.9381 163.13 16.7733C162.986 16.6086 162.788 16.4722 162.538 16.3643C162.291 16.2563 162.011 16.1611 161.699 16.0787L160.667 15.7975C159.968 15.6072 159.415 15.3273 159.005 14.958C158.599 14.5887 158.396 14.1001 158.396 13.4921C158.396 12.9893 158.532 12.5503 158.805 12.1753C159.078 11.8003 159.447 11.5091 159.913 11.3018C160.379 11.0915 160.905 10.9864 161.49 10.9864C162.081 10.9864 162.602 11.0901 163.054 11.2975C163.508 11.5049 163.866 11.7904 164.128 12.154C164.389 12.5148 164.525 12.9296 164.537 13.3983H163.267ZM166.127 19.833V13.2876H167.401V19.833H166.127ZM166.771 12.2776C166.549 12.2776 166.359 12.2037 166.2 12.056C166.043 11.9055 165.965 11.7265 165.965 11.5191C165.965 11.3089 166.043 11.1299 166.2 10.9822C166.359 10.8316 166.549 10.7563 166.771 10.7563C166.992 10.7563 167.181 10.8316 167.337 10.9822C167.497 11.1299 167.576 11.3089 167.576 11.5191C167.576 11.7265 167.497 11.9055 167.337 12.056C167.181 12.2037 166.992 12.2776 166.771 12.2776ZM171.86 22.4239C171.34 22.4239 170.892 22.3557 170.517 22.2194C170.145 22.083 169.841 21.9026 169.606 21.6782C169.37 21.4537 169.194 21.208 169.077 20.941L170.172 20.4893C170.249 20.6143 170.351 20.7464 170.479 20.8856C170.61 21.0276 170.786 21.1483 171.008 21.2478C171.232 21.3472 171.52 21.3969 171.873 21.3969C172.356 21.3969 172.755 21.279 173.07 21.0432C173.385 20.8103 173.543 20.4381 173.543 19.9268V18.6398H173.462C173.385 18.779 173.275 18.9339 173.13 19.1043C172.988 19.2748 172.792 19.4225 172.542 19.5475C172.292 19.6725 171.966 19.735 171.566 19.735C171.049 19.735 170.583 19.6143 170.168 19.3728C169.756 19.1285 169.429 18.7691 169.188 18.2947C168.949 17.8174 168.83 17.2307 168.83 16.5347C168.83 15.8387 168.948 15.2421 169.184 14.7449C169.422 14.2478 169.749 13.8671 170.164 13.6029C170.579 13.3358 171.049 13.2023 171.574 13.2023C171.981 13.2023 172.309 13.2705 172.559 13.4069C172.809 13.5404 173.003 13.6966 173.142 13.8756C173.285 14.0546 173.394 14.2123 173.471 14.3486H173.564V13.2876H174.813V19.9779C174.813 20.5404 174.682 21.002 174.421 21.3628C174.16 21.7236 173.806 21.9907 173.36 22.164C172.917 22.3373 172.417 22.4239 171.86 22.4239ZM171.847 18.6782C172.214 18.6782 172.523 18.593 172.776 18.4225C173.032 18.2492 173.225 18.002 173.356 17.681C173.489 17.3572 173.556 16.9694 173.556 16.5177C173.556 16.0773 173.491 15.6895 173.36 15.3543C173.229 15.0191 173.037 14.7577 172.785 14.5702C172.532 14.3799 172.219 14.2847 171.847 14.2847C171.464 14.2847 171.144 14.3841 170.888 14.583C170.633 14.779 170.439 15.0461 170.309 15.3841C170.181 15.7222 170.117 16.1001 170.117 16.5177C170.117 16.9466 170.182 17.3231 170.313 17.6469C170.444 17.9708 170.637 18.2236 170.892 18.4055C171.151 18.5873 171.469 18.6782 171.847 18.6782ZM177.796 15.9466V19.833H176.522V13.2876H177.745V14.3529H177.826C177.976 14.0063 178.212 13.7279 178.533 13.5177C178.857 13.3074 179.265 13.2023 179.756 13.2023C180.202 13.2023 180.593 13.2961 180.928 13.4836C181.263 13.6682 181.523 13.9438 181.708 14.3103C181.892 14.6768 181.985 15.1299 181.985 15.6697V19.833H180.711V15.8231C180.711 15.3486 180.587 14.9779 180.34 14.7108C180.093 14.441 179.753 14.306 179.321 14.306C179.026 14.306 178.763 14.3699 178.533 14.4978C178.306 14.6256 178.125 14.8131 177.992 15.0603C177.861 15.3046 177.796 15.6001 177.796 15.9466ZM186.869 19.833V13.2876H188.144V19.833H186.869ZM187.513 12.2776C187.291 12.2776 187.101 12.2037 186.942 12.056C186.786 11.9055 186.707 11.7265 186.707 11.5191C186.707 11.3089 186.786 11.1299 186.942 10.9822C187.101 10.8316 187.291 10.7563 187.513 10.7563C187.734 10.7563 187.923 10.8316 188.08 10.9822C188.239 11.1299 188.318 11.3089 188.318 11.5191C188.318 11.7265 188.239 11.9055 188.08 12.056C187.923 12.2037 187.734 12.2776 187.513 12.2776ZM191.132 15.9466V19.833H189.858V13.2876H191.081V14.3529H191.162C191.312 14.0063 191.548 13.7279 191.869 13.5177C192.193 13.3074 192.601 13.2023 193.092 13.2023C193.538 13.2023 193.929 13.2961 194.264 13.4836C194.599 13.6682 194.859 13.9438 195.044 14.3103C195.228 14.6768 195.321 15.1299 195.321 15.6697V19.833H194.047V15.8231C194.047 15.3486 193.923 14.9779 193.676 14.7108C193.429 14.441 193.089 14.306 192.657 14.306C192.362 14.306 192.099 14.3699 191.869 14.4978C191.642 14.6256 191.461 14.8131 191.328 15.0603C191.197 15.3046 191.132 15.6001 191.132 15.9466Z" fill="white"/>
</svg>
