<svg width="353" height="33" viewBox="0 0 353 33" fill="none" xmlns="http://www.w3.org/2000/svg">
<rect x="0.670532" y="0.333008" width="352" height="32" rx="8" fill="#F6F6F6"/>
<g clip-path="url(#clip0_1_610)">
<path d="M10.7274 19.833V11.1057H15.9944V12.0432H11.7842V14.9921H15.7217V15.9296H11.7842V18.8955H16.0626V19.833H10.7274ZM17.7629 19.833V13.2876H18.7345V14.3103H18.8197C18.956 13.9608 19.1762 13.6895 19.4802 13.4964C19.7842 13.3003 20.1492 13.2023 20.5754 13.2023C21.0072 13.2023 21.3666 13.3003 21.6535 13.4964C21.9433 13.6895 22.1691 13.9608 22.331 14.3103H22.3992C22.5668 13.9722 22.8183 13.7037 23.1535 13.5049C23.4887 13.3032 23.8907 13.2023 24.3595 13.2023C24.9447 13.2023 25.4234 13.3856 25.7955 13.752C26.1677 14.1157 26.3538 14.6824 26.3538 15.4523V19.833H25.3481V15.4523C25.3481 14.9694 25.216 14.6242 24.9518 14.4168C24.6876 14.2094 24.3765 14.1057 24.0185 14.1057C23.5583 14.1057 23.2018 14.2449 22.9489 14.5233C22.6961 14.7989 22.5697 15.1483 22.5697 15.5716V19.833H21.547V15.3501C21.547 14.9779 21.4262 14.6782 21.1847 14.4509C20.9433 14.2208 20.6322 14.1057 20.2515 14.1057C19.9901 14.1057 19.7458 14.1753 19.5185 14.3145C19.2941 14.4537 19.1123 14.6469 18.9731 14.8941C18.8367 15.1384 18.7685 15.4211 18.7685 15.7421V19.833H17.7629ZM30.1187 19.9864C29.7039 19.9864 29.3275 19.9083 28.9894 19.752C28.6514 19.593 28.3829 19.3643 28.184 19.066C27.9852 18.7648 27.8857 18.4012 27.8857 17.9751C27.8857 17.6001 27.9596 17.2961 28.1073 17.0631C28.255 16.8273 28.4525 16.6427 28.6997 16.5091C28.9468 16.3756 29.2195 16.2762 29.5178 16.2108C29.819 16.1427 30.1215 16.0887 30.4255 16.0489C30.8232 15.9978 31.1457 15.9594 31.3928 15.9339C31.6428 15.9055 31.8247 15.8586 31.9383 15.7932C32.0548 15.7279 32.113 15.6143 32.113 15.4523V15.4182C32.113 14.9978 31.9979 14.6711 31.7678 14.4381C31.5406 14.2052 31.1954 14.0887 30.7323 14.0887C30.2522 14.0887 29.8758 14.1938 29.6031 14.404C29.3303 14.6143 29.1386 14.8387 29.0278 15.0773L28.0732 14.7364C28.2437 14.3387 28.471 14.029 28.755 13.8074C29.042 13.583 29.3545 13.4268 29.6925 13.3387C30.0335 13.2478 30.3687 13.2023 30.6982 13.2023C30.9085 13.2023 31.1499 13.2279 31.4227 13.279C31.6982 13.3273 31.9639 13.4282 32.2195 13.5816C32.4781 13.735 32.6925 13.9665 32.863 14.2762C33.0335 14.5858 33.1187 15.0006 33.1187 15.5205V19.833H32.113V18.9466H32.0619C31.9937 19.0887 31.88 19.2407 31.721 19.4026C31.5619 19.5645 31.3502 19.7023 31.086 19.816C30.8218 19.9296 30.4994 19.9864 30.1187 19.9864ZM30.2721 19.083C30.6698 19.083 31.005 19.0049 31.2778 18.8486C31.5533 18.6924 31.7607 18.4907 31.8999 18.2435C32.042 17.9964 32.113 17.7364 32.113 17.4637V16.5432C32.0704 16.5944 31.9766 16.6412 31.8318 16.6839C31.6897 16.7236 31.5249 16.7591 31.3374 16.7904C31.1528 16.8188 30.9724 16.8444 30.7962 16.8671C30.6229 16.887 30.4823 16.904 30.3744 16.9182C30.113 16.9523 29.8687 17.0077 29.6414 17.0844C29.417 17.1583 29.2352 17.2705 29.096 17.4211C28.9596 17.5688 28.8914 17.7705 28.8914 18.0262C28.8914 18.3756 29.0207 18.6398 29.2792 18.8188C29.5406 18.9949 29.8715 19.083 30.2721 19.083ZM34.9543 19.833V13.2876H35.9599V19.833H34.9543ZM35.4656 12.1966C35.2696 12.1966 35.1006 12.1299 34.9585 11.9964C34.8193 11.8628 34.7497 11.7023 34.7497 11.5148C34.7497 11.3273 34.8193 11.1668 34.9585 11.0333C35.1006 10.8998 35.2696 10.833 35.4656 10.833C35.6617 10.833 35.8293 10.8998 35.9685 11.0333C36.1105 11.1668 36.1815 11.3273 36.1815 11.5148C36.1815 11.7023 36.1105 11.8628 35.9685 11.9964C35.8293 12.1299 35.6617 12.1966 35.4656 12.1966ZM38.8076 11.1057V19.833H37.8019V11.1057H38.8076Z" fill="#646363"/>
</g>
<defs>
<clipPath id="clip0_1_610">
<rect width="334" height="14.5" fill="white" transform="translate(9.67053 7.83301)"/>
</clipPath>
</defs>
</svg>
