<svg width="353" height="345" viewBox="0 0 353 345" fill="none" xmlns="http://www.w3.org/2000/svg">
<rect x="0.670532" y="0.333008" width="352" height="48" fill="white"/>
<path d="M76.3918 20.1086C76.316 19.4362 76.0035 18.9154 75.4543 18.5461C74.905 18.172 74.2138 17.985 73.3804 17.985C72.7838 17.985 72.2677 18.0797 71.8321 18.2691C71.3965 18.4537 71.058 18.7094 70.8165 19.0361C70.5798 19.3581 70.4614 19.7251 70.4614 20.137C70.4614 20.4826 70.5419 20.7809 70.7029 21.0319C70.8686 21.2828 71.084 21.4935 71.3492 21.664C71.6191 21.8297 71.9079 21.9694 72.2156 22.083C72.5234 22.1919 72.8193 22.2819 73.1034 22.3529L74.5239 22.7222C74.9879 22.8358 75.4638 22.9897 75.9514 23.1839C76.4391 23.378 76.8913 23.6337 77.308 23.9509C77.7246 24.2681 78.0608 24.6611 78.3165 25.1299C78.5769 25.5986 78.7071 26.1597 78.7071 26.8131C78.7071 27.637 78.4941 28.3685 78.0679 29.0077C77.6465 29.6469 77.0334 30.1512 76.2284 30.5205C75.4282 30.8898 74.46 31.0745 73.3236 31.0745C72.2346 31.0745 71.2924 30.9017 70.4969 30.556C69.7014 30.2104 69.0788 29.7203 68.629 29.0858C68.1792 28.4466 67.9306 27.6891 67.8833 26.8131H70.085C70.1276 27.3387 70.298 27.7767 70.5963 28.127C70.8994 28.4727 71.2853 28.7307 71.754 28.9012C72.2275 29.0669 72.746 29.1498 73.3094 29.1498C73.9297 29.1498 74.4813 29.0527 74.9642 28.8586C75.4519 28.6597 75.8354 28.3851 76.1148 28.0347C76.3942 27.6796 76.5338 27.2653 76.5338 26.7918C76.5338 26.3609 76.4107 26.0082 76.1645 25.7336C75.923 25.459 75.594 25.2317 75.1773 25.0518C74.7654 24.8718 74.299 24.7132 73.7781 24.5759L72.0594 24.1072C70.8946 23.7899 69.9713 23.3235 69.2895 22.708C68.6124 22.0925 68.2739 21.2781 68.2739 20.2648C68.2739 19.4268 68.5012 18.6952 68.9557 18.0702C69.4103 17.4452 70.0258 16.9599 70.8023 16.6143C71.5788 16.2639 72.4548 16.0887 73.4301 16.0887C74.415 16.0887 75.2838 16.2615 76.0367 16.6072C76.7942 16.9528 77.3908 17.4287 77.8264 18.0347C78.2621 18.636 78.4893 19.3273 78.5083 20.1086H76.3918ZM81.1592 30.833V19.9239H83.2828V30.833H81.1592ZM82.2316 18.2407C81.8623 18.2407 81.5451 18.1176 81.2799 17.8714C81.0195 17.6204 80.8893 17.3221 80.8893 16.9765C80.8893 16.6261 81.0195 16.3278 81.2799 16.0816C81.5451 15.8306 81.8623 15.7052 82.2316 15.7052C82.6009 15.7052 82.9158 15.8306 83.1762 16.0816C83.4414 16.3278 83.574 16.6261 83.574 16.9765C83.574 17.3221 83.4414 17.6204 83.1762 17.8714C82.9158 18.1176 82.6009 18.2407 82.2316 18.2407ZM90.7135 35.1512C89.847 35.1512 89.1013 35.0376 88.4763 34.8103C87.856 34.583 87.3494 34.2823 86.9564 33.9083C86.5634 33.5342 86.2699 33.1247 86.0757 32.6796L87.901 31.9268C88.0289 32.1351 88.1993 32.3553 88.4124 32.5873C88.6302 32.824 88.9237 33.0252 89.2931 33.191C89.6671 33.3567 90.1477 33.4395 90.7348 33.4395C91.5397 33.4395 92.205 33.243 92.7306 32.8501C93.2561 32.4618 93.5189 31.8415 93.5189 30.9893V28.8444H93.384C93.2561 29.0764 93.0715 29.3344 92.83 29.6185C92.5933 29.9026 92.2665 30.1488 91.8499 30.3572C91.4332 30.5655 90.8911 30.6697 90.2235 30.6697C89.3617 30.6697 88.5852 30.4684 87.8939 30.066C87.2074 29.6588 86.6629 29.0598 86.2604 28.2691C85.8627 27.4736 85.6638 26.4959 85.6638 25.3358C85.6638 24.1758 85.8603 23.1815 86.2533 22.3529C86.651 21.5243 87.1955 20.8898 87.8868 20.4495C88.5781 20.0044 89.3617 19.7819 90.2377 19.7819C90.9147 19.7819 91.4616 19.8955 91.8783 20.1228C92.295 20.3453 92.6193 20.6057 92.8513 20.904C93.088 21.2023 93.2703 21.4651 93.3982 21.6924H93.5544V19.9239H95.6354V31.0745C95.6354 32.012 95.4176 32.7814 94.982 33.3827C94.5464 33.984 93.9569 34.4291 93.2135 34.718C92.4749 35.0068 91.6415 35.1512 90.7135 35.1512ZM90.6922 28.9083C91.303 28.9083 91.8191 28.7662 92.2405 28.4822C92.6666 28.1933 92.9886 27.7814 93.2064 27.2464C93.429 26.7066 93.5402 26.0603 93.5402 25.3074C93.5402 24.5735 93.4313 23.9272 93.2135 23.3685C92.9957 22.8098 92.6761 22.3742 92.2547 22.0617C91.8333 21.7445 91.3125 21.5858 90.6922 21.5858C90.053 21.5858 89.5203 21.7516 89.0942 22.083C88.6681 22.4097 88.3461 22.8548 88.1283 23.4182C87.9152 23.9817 87.8087 24.6114 87.8087 25.3074C87.8087 26.0224 87.9176 26.6498 88.1354 27.1895C88.3532 27.7293 88.6752 28.1507 89.1013 28.4537C89.5322 28.7568 90.0625 28.9083 90.6922 28.9083ZM100.607 24.3557V30.833H98.4834V19.9239H100.522V21.6995H100.657C100.908 21.1218 101.301 20.6578 101.836 20.3074C102.375 19.9571 103.055 19.7819 103.874 19.7819C104.617 19.7819 105.268 19.9381 105.827 20.2506C106.386 20.5584 106.819 21.0177 107.127 21.6285C107.435 22.2393 107.589 22.9945 107.589 23.8941V30.833H105.465V24.1498C105.465 23.359 105.259 22.7412 104.847 22.2961C104.435 21.8463 103.869 21.6214 103.15 21.6214C102.657 21.6214 102.219 21.7279 101.836 21.941C101.457 22.154 101.156 22.4665 100.934 22.8785C100.716 23.2857 100.607 23.7781 100.607 24.3557ZM115.729 30.833V19.9239H117.853V30.833H115.729ZM116.802 18.2407C116.433 18.2407 116.115 18.1176 115.85 17.8714C115.59 17.6204 115.46 17.3221 115.46 16.9765C115.46 16.6261 115.59 16.3278 115.85 16.0816C116.115 15.8306 116.433 15.7052 116.802 15.7052C117.171 15.7052 117.486 15.8306 117.747 16.0816C118.012 16.3278 118.144 16.6261 118.144 16.9765C118.144 17.3221 118.012 17.6204 117.747 17.8714C117.486 18.1176 117.171 18.2407 116.802 18.2407ZM122.834 24.3557V30.833H120.71V19.9239H122.748V21.6995H122.883C123.134 21.1218 123.527 20.6578 124.062 20.3074C124.602 19.9571 125.281 19.7819 126.101 19.7819C126.844 19.7819 127.495 19.9381 128.054 20.2506C128.612 20.5584 129.046 21.0177 129.353 21.6285C129.661 22.2393 129.815 22.9945 129.815 23.8941V30.833H127.692V24.1498C127.692 23.359 127.486 22.7412 127.074 22.2961C126.662 21.8463 126.096 21.6214 125.376 21.6214C124.884 21.6214 124.446 21.7279 124.062 21.941C123.683 22.154 123.383 22.4665 123.16 22.8785C122.942 23.2857 122.834 23.7781 122.834 24.3557ZM143.048 19.9239V21.6285H137.09V19.9239H143.048ZM138.688 17.3103H140.811V27.6299C140.811 28.0418 140.873 28.3519 140.996 28.5603C141.119 28.7639 141.278 28.9036 141.472 28.9793C141.671 29.0503 141.886 29.0858 142.118 29.0858C142.288 29.0858 142.438 29.074 142.565 29.0503C142.693 29.0267 142.793 29.0077 142.864 28.9935L143.247 30.7478C143.124 30.7951 142.949 30.8425 142.722 30.8898C142.494 30.9419 142.21 30.9703 141.869 30.9751C141.311 30.9845 140.79 30.8851 140.307 30.6768C139.824 30.4684 139.433 30.1465 139.135 29.7108C138.837 29.2752 138.688 28.7284 138.688 28.0702V17.3103ZM149.875 31.0532C148.853 31.0532 147.96 30.8188 147.198 30.3501C146.436 29.8813 145.844 29.2255 145.422 28.3827C145.001 27.5399 144.79 26.5551 144.79 25.4282C144.79 24.2965 145.001 23.307 145.422 22.4594C145.844 21.6119 146.436 20.9537 147.198 20.485C147.96 20.0162 148.853 19.7819 149.875 19.7819C150.898 19.7819 151.791 20.0162 152.553 20.485C153.315 20.9537 153.907 21.6119 154.329 22.4594C154.75 23.307 154.961 24.2965 154.961 25.4282C154.961 26.5551 154.75 27.5399 154.329 28.3827C153.907 29.2255 153.315 29.8813 152.553 30.3501C151.791 30.8188 150.898 31.0532 149.875 31.0532ZM149.883 29.2705C150.545 29.2705 151.095 29.0953 151.53 28.7449C151.966 28.3946 152.288 27.9282 152.496 27.3458C152.709 26.7634 152.816 26.1218 152.816 25.4211C152.816 24.7251 152.709 24.0858 152.496 23.5035C152.288 22.9163 151.966 22.4452 151.53 22.0901C151.095 21.735 150.545 21.5574 149.883 21.5574C149.215 21.5574 148.661 21.735 148.221 22.0901C147.785 22.4452 147.461 22.9163 147.248 23.5035C147.039 24.0858 146.935 24.7251 146.935 25.4211C146.935 26.1218 147.039 26.7634 147.248 27.3458C147.461 27.9282 147.785 28.3946 148.221 28.7449C148.661 29.0953 149.215 29.2705 149.883 29.2705ZM163.966 34.9239C163.649 34.9239 163.36 34.8979 163.1 34.8458C162.839 34.7984 162.645 34.7464 162.517 34.6895L163.029 32.9495C163.417 33.0537 163.763 33.0986 164.066 33.0844C164.369 33.0702 164.636 32.9566 164.868 32.7435C165.105 32.5305 165.313 32.1824 165.493 31.6995L165.756 30.9751L161.765 19.9239H164.037L166.8 28.3898H166.914L169.677 19.9239H171.956L167.461 32.289C167.252 32.8572 166.987 33.3377 166.665 33.7307C166.343 34.1285 165.96 34.4268 165.515 34.6256C165.07 34.8245 164.553 34.9239 163.966 34.9239ZM178.176 31.0532C177.154 31.0532 176.261 30.8188 175.499 30.3501C174.736 29.8813 174.145 29.2255 173.723 28.3827C173.302 27.5399 173.091 26.5551 173.091 25.4282C173.091 24.2965 173.302 23.307 173.723 22.4594C174.145 21.6119 174.736 20.9537 175.499 20.485C176.261 20.0162 177.154 19.7819 178.176 19.7819C179.199 19.7819 180.091 20.0162 180.854 20.485C181.616 20.9537 182.208 21.6119 182.629 22.4594C183.051 23.307 183.261 24.2965 183.261 25.4282C183.261 26.5551 183.051 27.5399 182.629 28.3827C182.208 29.2255 181.616 29.8813 180.854 30.3501C180.091 30.8188 179.199 31.0532 178.176 31.0532ZM178.183 29.2705C178.846 29.2705 179.395 29.0953 179.831 28.7449C180.267 28.3946 180.589 27.9282 180.797 27.3458C181.01 26.7634 181.117 26.1218 181.117 25.4211C181.117 24.7251 181.01 24.0858 180.797 23.5035C180.589 22.9163 180.267 22.4452 179.831 22.0901C179.395 21.735 178.846 21.5574 178.183 21.5574C177.516 21.5574 176.962 21.735 176.521 22.0901C176.086 22.4452 175.761 22.9163 175.548 23.5035C175.34 24.0858 175.236 24.7251 175.236 25.4211C175.236 26.1218 175.34 26.7634 175.548 27.3458C175.761 27.9282 176.086 28.3946 176.521 28.7449C176.962 29.0953 177.516 29.2705 178.183 29.2705ZM192.542 26.3089V19.9239H194.673V30.833H192.585V28.9438H192.471C192.22 29.5262 191.818 30.0115 191.264 30.3998C190.715 30.7833 190.031 30.9751 189.211 30.9751C188.511 30.9751 187.89 30.8212 187.351 30.5134C186.816 30.2009 186.394 29.7393 186.086 29.1285C185.783 28.5177 185.632 27.7625 185.632 26.8628V19.9239H187.755V26.6072C187.755 27.3505 187.961 27.9424 188.373 28.3827C188.785 28.8231 189.32 29.0432 189.978 29.0432C190.376 29.0432 190.772 28.9438 191.165 28.7449C191.562 28.5461 191.891 28.2454 192.152 27.843C192.417 27.4405 192.547 26.9291 192.542 26.3089ZM197.526 30.833V19.9239H199.579V21.6569H199.693C199.891 21.0697 200.242 20.6081 200.744 20.2719C201.25 19.931 201.823 19.7606 202.462 19.7606C202.595 19.7606 202.751 19.7653 202.931 19.7748C203.116 19.7842 203.26 19.7961 203.364 19.8103V21.8415C203.279 21.8179 203.128 21.7918 202.91 21.7634C202.692 21.7303 202.474 21.7137 202.256 21.7137C201.755 21.7137 201.307 21.8202 200.914 22.0333C200.526 22.2416 200.218 22.5328 199.991 22.9069C199.764 23.2762 199.65 23.6976 199.65 24.1711V30.833H197.526ZM213.67 31.0745C212.979 31.0745 212.354 30.9466 211.795 30.691C211.236 30.4305 210.793 30.0541 210.467 29.5617C210.145 29.0693 209.984 28.4656 209.984 27.7506C209.984 27.1351 210.102 26.6285 210.339 26.2307C210.576 25.833 210.895 25.5181 211.298 25.2861C211.7 25.0541 212.15 24.8789 212.647 24.7606C213.144 24.6422 213.651 24.5522 214.167 24.4907C214.82 24.4149 215.351 24.3534 215.758 24.306C216.165 24.2539 216.461 24.1711 216.646 24.0574C216.83 23.9438 216.923 23.7591 216.923 23.5035V23.4537C216.923 22.8335 216.747 22.3529 216.397 22.012C216.051 21.6711 215.535 21.5006 214.849 21.5006C214.134 21.5006 213.57 21.6592 213.158 21.9765C212.751 22.289 212.47 22.637 212.313 23.0205L210.318 22.566C210.554 21.9031 210.9 21.368 211.354 20.9608C211.814 20.5489 212.342 20.2506 212.938 20.066C213.535 19.8766 214.162 19.7819 214.82 19.7819C215.256 19.7819 215.718 19.834 216.205 19.9381C216.698 20.0376 217.157 20.2222 217.583 20.4921C218.014 20.762 218.367 21.1479 218.641 21.6498C218.916 22.1469 219.053 22.7932 219.053 23.5887V30.833H216.979V29.3415H216.894C216.757 29.6162 216.551 29.886 216.276 30.1512C216.002 30.4163 215.649 30.6365 215.218 30.8117C214.787 30.9869 214.271 31.0745 213.67 31.0745ZM214.131 29.3699C214.719 29.3699 215.221 29.2539 215.637 29.0219C216.059 28.7899 216.378 28.4869 216.596 28.1128C216.819 27.734 216.93 27.3292 216.93 26.8983V25.4921C216.854 25.5679 216.707 25.6389 216.489 25.7052C216.276 25.7667 216.033 25.8212 215.758 25.8685C215.483 25.9111 215.216 25.9514 214.955 25.9893C214.695 26.0224 214.477 26.0508 214.302 26.0745C213.89 26.1266 213.514 26.2142 213.173 26.3373C212.837 26.4604 212.567 26.6379 212.363 26.8699C212.164 27.0972 212.065 27.4002 212.065 27.779C212.065 28.3046 212.259 28.7023 212.647 28.9722C213.035 29.2374 213.53 29.3699 214.131 29.3699ZM226.477 31.0532C225.421 31.0532 224.512 30.8141 223.75 30.3358C222.992 29.8529 222.41 29.1876 222.003 28.3401C221.595 27.4926 221.392 26.5219 221.392 25.4282C221.392 24.3202 221.6 23.3425 222.017 22.4949C222.433 21.6427 223.021 20.9774 223.778 20.4992C224.536 20.021 225.428 19.7819 226.456 19.7819C227.284 19.7819 228.023 19.9358 228.672 20.2435C229.32 20.5465 229.843 20.9727 230.241 21.5219C230.644 22.0712 230.883 22.7127 230.959 23.4466H228.892C228.778 22.9353 228.518 22.4949 228.111 22.1256C227.708 21.7563 227.168 21.5716 226.491 21.5716C225.899 21.5716 225.381 21.7279 224.936 22.0404C224.495 22.3482 224.152 22.7885 223.906 23.3614C223.66 23.9296 223.537 24.6019 223.537 25.3785C223.537 26.1739 223.657 26.8605 223.899 27.4381C224.14 28.0158 224.481 28.4632 224.922 28.7805C225.367 29.0977 225.89 29.2563 226.491 29.2563C226.894 29.2563 227.258 29.1829 227.585 29.0361C227.916 28.8846 228.193 28.6692 228.416 28.3898C228.643 28.1105 228.802 27.7743 228.892 27.3813H230.959C230.883 28.0868 230.653 28.7165 230.27 29.2705C229.886 29.8245 229.372 30.2601 228.728 30.5773C228.089 30.8946 227.339 31.0532 226.477 31.0532ZM237.825 31.0532C236.769 31.0532 235.86 30.8141 235.097 30.3358C234.34 29.8529 233.757 29.1876 233.35 28.3401C232.943 27.4926 232.739 26.5219 232.739 25.4282C232.739 24.3202 232.948 23.3425 233.364 22.4949C233.781 21.6427 234.368 20.9774 235.126 20.4992C235.883 20.021 236.776 19.7819 237.803 19.7819C238.632 19.7819 239.371 19.9358 240.019 20.2435C240.668 20.5465 241.191 20.9727 241.589 21.5219C241.991 22.0712 242.23 22.7127 242.306 23.4466H240.239C240.126 22.9353 239.865 22.4949 239.458 22.1256C239.056 21.7563 238.516 21.5716 237.839 21.5716C237.247 21.5716 236.729 21.7279 236.283 22.0404C235.843 22.3482 235.5 22.7885 235.254 23.3614C235.007 23.9296 234.884 24.6019 234.884 25.3785C234.884 26.1739 235.005 26.8605 235.247 27.4381C235.488 28.0158 235.829 28.4632 236.269 28.7805C236.714 29.0977 237.238 29.2563 237.839 29.2563C238.241 29.2563 238.606 29.1829 238.933 29.0361C239.264 28.8846 239.541 28.6692 239.764 28.3898C239.991 28.1105 240.149 27.7743 240.239 27.3813H242.306C242.23 28.0868 242.001 28.7165 241.617 29.2705C241.234 29.8245 240.72 30.2601 240.076 30.5773C239.437 30.8946 238.686 31.0532 237.825 31.0532ZM249.172 31.0532C248.15 31.0532 247.257 30.8188 246.495 30.3501C245.732 29.8813 245.141 29.2255 244.719 28.3827C244.298 27.5399 244.087 26.5551 244.087 25.4282C244.087 24.2965 244.298 23.307 244.719 22.4594C245.141 21.6119 245.732 20.9537 246.495 20.485C247.257 20.0162 248.15 19.7819 249.172 19.7819C250.195 19.7819 251.088 20.0162 251.85 20.485C252.612 20.9537 253.204 21.6119 253.625 22.4594C254.047 23.307 254.258 24.2965 254.258 25.4282C254.258 26.5551 254.047 27.5399 253.625 28.3827C253.204 29.2255 252.612 29.8813 251.85 30.3501C251.088 30.8188 250.195 31.0532 249.172 31.0532ZM249.179 29.2705C249.842 29.2705 250.392 29.0953 250.827 28.7449C251.263 28.3946 251.585 27.9282 251.793 27.3458C252.006 26.7634 252.113 26.1218 252.113 25.4211C252.113 24.7251 252.006 24.0858 251.793 23.5035C251.585 22.9163 251.263 22.4452 250.827 22.0901C250.392 21.735 249.842 21.5574 249.179 21.5574C248.512 21.5574 247.958 21.735 247.517 22.0901C247.082 22.4452 246.758 22.9163 246.544 23.5035C246.336 24.0858 246.232 24.7251 246.232 25.4211C246.232 26.1218 246.336 26.7634 246.544 27.3458C246.758 27.9282 247.082 28.3946 247.517 28.7449C247.958 29.0953 248.512 29.2705 249.179 29.2705ZM263.538 26.3089V19.9239H265.669V30.833H263.581V28.9438H263.467C263.216 29.5262 262.814 30.0115 262.26 30.3998C261.711 30.7833 261.027 30.9751 260.207 30.9751C259.507 30.9751 258.886 30.8212 258.347 30.5134C257.812 30.2009 257.39 29.7393 257.082 29.1285C256.779 28.5177 256.628 27.7625 256.628 26.8628V19.9239H258.752V26.6072C258.752 27.3505 258.957 27.9424 259.369 28.3827C259.781 28.8231 260.316 29.0432 260.975 29.0432C261.372 29.0432 261.768 28.9438 262.161 28.7449C262.558 28.5461 262.887 28.2454 263.148 27.843C263.413 27.4405 263.543 26.9291 263.538 26.3089ZM270.646 24.3557V30.833H268.522V19.9239H270.561V21.6995H270.696C270.947 21.1218 271.34 20.6578 271.875 20.3074C272.415 19.9571 273.094 19.7819 273.913 19.7819C274.656 19.7819 275.308 19.9381 275.866 20.2506C276.425 20.5584 276.858 21.0177 277.166 21.6285C277.474 22.2393 277.628 22.9945 277.628 23.8941V30.833H275.504V24.1498C275.504 23.359 275.298 22.7412 274.886 22.2961C274.474 21.8463 273.908 21.6214 273.189 21.6214C272.696 21.6214 272.258 21.7279 271.875 21.941C271.496 22.154 271.195 22.4665 270.973 22.8785C270.755 23.2857 270.646 23.7781 270.646 24.3557ZM285.568 19.9239V21.6285H279.609V19.9239H285.568ZM281.207 17.3103H283.331V27.6299C283.331 28.0418 283.392 28.3519 283.515 28.5603C283.638 28.7639 283.797 28.9036 283.991 28.9793C284.19 29.0503 284.406 29.0858 284.638 29.0858C284.808 29.0858 284.957 29.074 285.085 29.0503C285.213 29.0267 285.312 29.0077 285.383 28.9935L285.767 30.7478C285.644 30.7951 285.468 30.8425 285.241 30.8898C285.014 30.9419 284.73 30.9703 284.389 30.9751C283.83 30.9845 283.309 30.8851 282.826 30.6768C282.343 30.4684 281.953 30.1465 281.655 29.7108C281.356 29.2752 281.207 28.7284 281.207 28.0702V17.3103Z" fill="#111111"/>
<g clip-path="url(#clip0_1_592)">
<path d="M123.97 88.228C123.974 87.78 123.926 87.333 123.828 86.896H117.478V89.368H121.204C121.137 89.799 120.982 90.212 120.75 90.583C120.518 90.954 120.212 91.275 119.851 91.527V91.614L121.881 93.147H122.015C122.681 92.5172 123.207 91.7539 123.558 90.907C123.908 90.062 124.074 89.154 124.044 88.242" fill="#4285F4"/>
<path d="M117.478 94.748C119.12 94.7954 120.72 94.2191 121.955 93.135L119.825 91.503C119.129 91.9607 118.31 92.1933 117.478 92.169C116.625 92.1679 115.795 91.9012 115.102 91.406C114.413 90.9149 113.898 90.2182 113.63 89.416H113.549L111.465 91.003V91.076C112.028 92.1788 112.887 93.1037 113.945 93.748C115.009 94.3973 116.231 94.7431 117.478 94.748Z" fill="#34A853"/>
<path d="M113.629 89.413C113.485 88.9835 113.414 88.5329 113.419 88.08C113.415 87.628 113.484 87.1784 113.622 86.748V86.673L111.505 85.053H111.438C110.963 85.9815 110.715 87.0095 110.715 88.0525C110.715 89.0954 110.963 90.1235 111.438 91.052L113.629 89.413Z" fill="#FBBC05"/>
<path d="M117.478 83.9961C118.445 83.9805 119.381 84.3358 120.095 84.9891L122.002 83.1491C120.77 82.0151 119.151 81.3954 117.478 81.4171C116.226 81.4172 114.999 81.7607 113.93 82.4101C112.866 83.0549 112.004 83.9828 111.438 85.0901L113.623 86.7491C113.889 85.9491 114.405 85.2511 115.098 84.7571C115.792 84.2622 116.624 83.9956 117.478 83.9961Z" fill="#EB4335"/>
</g>
<path d="M139.31 85.3983C139.265 84.9949 139.077 84.6824 138.748 84.4608C138.418 84.2364 138.003 84.1242 137.503 84.1242C137.145 84.1242 136.836 84.181 136.574 84.2947C136.313 84.4055 136.11 84.5589 135.965 84.7549C135.823 84.9481 135.752 85.1682 135.752 85.4154C135.752 85.6228 135.8 85.8018 135.897 85.9523C135.996 86.1029 136.126 86.2293 136.285 86.3316C136.447 86.431 136.62 86.5148 136.805 86.583C136.989 86.6483 137.167 86.7023 137.337 86.7449L138.19 86.9665C138.468 87.0347 138.753 87.127 139.046 87.2435C139.339 87.36 139.61 87.5134 139.86 87.7037C140.11 87.8941 140.312 88.1299 140.465 88.4111C140.621 88.6924 140.699 89.029 140.699 89.4211C140.699 89.9154 140.572 90.3543 140.316 90.7378C140.063 91.1214 139.695 91.4239 139.212 91.6455C138.732 91.8671 138.151 91.9779 137.469 91.9779C136.816 91.9779 136.251 91.8742 135.773 91.6668C135.296 91.4594 134.922 91.1654 134.653 90.7847C134.383 90.4012 134.234 89.9466 134.205 89.4211H135.526C135.552 89.7364 135.654 89.9992 135.833 90.2094C136.015 90.4168 136.246 90.5716 136.528 90.6739C136.812 90.7733 137.123 90.8231 137.461 90.8231C137.833 90.8231 138.164 90.7648 138.454 90.6483C138.746 90.529 138.976 90.3643 139.144 90.154C139.312 89.941 139.395 89.6924 139.395 89.4083C139.395 89.1498 139.322 88.9381 139.174 88.7733C139.029 88.6086 138.832 88.4722 138.582 88.3643C138.334 88.2563 138.055 88.1611 137.742 88.0787L136.711 87.7975C136.012 87.6072 135.458 87.3273 135.049 86.958C134.643 86.5887 134.44 86.1001 134.44 85.4921C134.44 84.9893 134.576 84.5503 134.849 84.1753C135.121 83.8003 135.491 83.5091 135.957 83.3018C136.422 83.0915 136.948 82.9864 137.533 82.9864C138.124 82.9864 138.645 83.0901 139.097 83.2975C139.552 83.5049 139.91 83.7904 140.171 84.154C140.432 84.5148 140.569 84.9296 140.58 85.3983H139.31ZM142.171 91.833V85.2876H143.445V91.833H142.171ZM142.814 84.2776C142.593 84.2776 142.402 84.2037 142.243 84.056C142.087 83.9055 142.009 83.7265 142.009 83.5191C142.009 83.3089 142.087 83.1299 142.243 82.9822C142.402 82.8316 142.593 82.7563 142.814 82.7563C143.036 82.7563 143.225 82.8316 143.381 82.9822C143.54 83.1299 143.62 83.3089 143.62 83.5191C143.62 83.7265 143.54 83.9055 143.381 84.056C143.225 84.2037 143.036 84.2776 142.814 84.2776ZM147.903 94.4239C147.383 94.4239 146.936 94.3557 146.561 94.2194C146.189 94.083 145.885 93.9026 145.649 93.6782C145.413 93.4537 145.237 93.208 145.121 92.941L146.216 92.4893C146.292 92.6143 146.395 92.7464 146.523 92.8856C146.653 93.0276 146.829 93.1483 147.051 93.2478C147.275 93.3472 147.564 93.3969 147.916 93.3969C148.399 93.3969 148.798 93.279 149.114 93.0432C149.429 92.8103 149.587 92.4381 149.587 91.9268V90.6398H149.506C149.429 90.779 149.318 90.9339 149.173 91.1043C149.031 91.2748 148.835 91.4225 148.585 91.5475C148.335 91.6725 148.01 91.735 147.609 91.735C147.092 91.735 146.626 91.6143 146.212 91.3728C145.8 91.1285 145.473 90.7691 145.231 90.2947C144.993 89.8174 144.873 89.2307 144.873 88.5347C144.873 87.8387 144.991 87.2421 145.227 86.7449C145.466 86.2478 145.792 85.8671 146.207 85.6029C146.622 85.3358 147.092 85.2023 147.618 85.2023C148.024 85.2023 148.352 85.2705 148.602 85.4069C148.852 85.5404 149.047 85.6966 149.186 85.8756C149.328 86.0546 149.437 86.2123 149.514 86.3486H149.608V85.2876H150.856V91.9779C150.856 92.5404 150.726 93.002 150.464 93.3628C150.203 93.7236 149.849 93.9907 149.403 94.164C148.96 94.3373 148.46 94.4239 147.903 94.4239ZM147.89 90.6782C148.257 90.6782 148.567 90.593 148.819 90.4225C149.075 90.2492 149.268 90.002 149.399 89.681C149.533 89.3572 149.599 88.9694 149.599 88.5177C149.599 88.0773 149.534 87.6895 149.403 87.3543C149.273 87.0191 149.081 86.7577 148.828 86.5702C148.575 86.3799 148.263 86.2847 147.89 86.2847C147.507 86.2847 147.187 86.3841 146.932 86.583C146.676 86.779 146.483 87.0461 146.352 87.3841C146.224 87.7222 146.16 88.1001 146.16 88.5177C146.16 88.9466 146.226 89.3231 146.356 89.6469C146.487 89.9708 146.68 90.2236 146.936 90.4055C147.194 90.5873 147.513 90.6782 147.89 90.6782ZM153.839 87.9466V91.833H152.565V85.2876H153.788V86.3529H153.869C154.02 86.0063 154.256 85.7279 154.577 85.5177C154.9 85.3074 155.308 85.2023 155.8 85.2023C156.246 85.2023 156.636 85.2961 156.971 85.4836C157.307 85.6682 157.567 85.9438 157.751 86.3103C157.936 86.6768 158.028 87.1299 158.028 87.6697V91.833H156.754V87.8231C156.754 87.3486 156.631 86.9779 156.383 86.7108C156.136 86.441 155.797 86.306 155.365 86.306C155.069 86.306 154.807 86.3699 154.577 86.4978C154.349 86.6256 154.169 86.8131 154.035 87.0603C153.905 87.3046 153.839 87.6001 153.839 87.9466ZM162.913 91.833V85.2876H164.187V91.833H162.913ZM163.556 84.2776C163.335 84.2776 163.144 84.2037 162.985 84.056C162.829 83.9055 162.751 83.7265 162.751 83.5191C162.751 83.3089 162.829 83.1299 162.985 82.9822C163.144 82.8316 163.335 82.7563 163.556 82.7563C163.778 82.7563 163.967 82.8316 164.123 82.9822C164.282 83.1299 164.362 83.3089 164.362 83.5191C164.362 83.7265 164.282 83.9055 164.123 84.056C163.967 84.2037 163.778 84.2776 163.556 84.2776ZM167.175 87.9466V91.833H165.901V85.2876H167.124V86.3529H167.205C167.356 86.0063 167.591 85.7279 167.913 85.5177C168.236 85.3074 168.644 85.2023 169.136 85.2023C169.582 85.2023 169.972 85.2961 170.307 85.4836C170.643 85.6682 170.903 85.9438 171.087 86.3103C171.272 86.6768 171.364 87.1299 171.364 87.6697V91.833H170.09V87.8231C170.09 87.3486 169.966 86.9779 169.719 86.7108C169.472 86.441 169.133 86.306 168.701 86.306C168.405 86.306 168.143 86.3699 167.913 86.4978C167.685 86.6256 167.505 86.8131 167.371 87.0603C167.241 87.3046 167.175 87.6001 167.175 87.9466ZM177.668 91.833L175.742 85.2876H177.058L178.341 90.0944H178.405L179.692 85.2876H181.009L182.287 90.0731H182.351L183.625 85.2876H184.942L183.02 91.833H181.72L180.391 87.1072H180.293L178.963 91.833H177.668ZM186.151 91.833V85.2876H187.425V91.833H186.151ZM186.795 84.2776C186.573 84.2776 186.383 84.2037 186.224 84.056C186.067 83.9055 185.989 83.7265 185.989 83.5191C185.989 83.3089 186.067 83.1299 186.224 82.9822C186.383 82.8316 186.573 82.7563 186.795 82.7563C187.016 82.7563 187.205 82.8316 187.361 82.9822C187.52 83.1299 187.6 83.3089 187.6 83.5191C187.6 83.7265 187.52 83.9055 187.361 84.056C187.205 84.2037 187.016 84.2776 186.795 84.2776ZM192.195 85.2876V86.3103H188.62V85.2876H192.195ZM189.578 83.7194H190.853V89.9111C190.853 90.1583 190.889 90.3444 190.963 90.4694C191.037 90.5915 191.132 90.6753 191.249 90.7208C191.368 90.7634 191.497 90.7847 191.637 90.7847C191.739 90.7847 191.828 90.7776 191.905 90.7634C191.982 90.7492 192.041 90.7378 192.084 90.7293L192.314 91.7819C192.24 91.8103 192.135 91.8387 191.999 91.8671C191.862 91.8983 191.692 91.9154 191.487 91.9182C191.152 91.9239 190.84 91.8643 190.55 91.7393C190.26 91.6143 190.026 91.4211 189.847 91.1597C189.668 90.8983 189.578 90.5702 189.578 90.1753V83.7194ZM195.019 87.9466V91.833H193.745V83.1057H195.002V86.3529H195.083C195.236 86.0006 195.471 85.7208 195.786 85.5134C196.101 85.306 196.513 85.2023 197.022 85.2023C197.471 85.2023 197.863 85.2947 198.198 85.4793C198.536 85.664 198.797 85.9395 198.982 86.306C199.17 86.6697 199.263 87.1242 199.263 87.6697V91.833H197.989V87.8231C197.989 87.343 197.866 86.9708 197.618 86.7066C197.371 86.4395 197.028 86.306 196.587 86.306C196.286 86.306 196.016 86.3699 195.778 86.4978C195.542 86.6256 195.356 86.8131 195.219 87.0603C195.086 87.3046 195.019 87.6001 195.019 87.9466ZM210.148 85.8628C210.066 85.6043 209.955 85.3728 209.816 85.1682C209.679 84.9608 209.516 84.7847 209.326 84.6398C209.135 84.4921 208.918 84.3799 208.674 84.3032C208.432 84.2265 208.166 84.1881 207.877 84.1881C207.385 84.1881 206.942 84.3145 206.547 84.5674C206.152 84.8202 205.84 85.191 205.61 85.6796C205.382 86.1654 205.269 86.7606 205.269 87.4651C205.269 88.1725 205.384 88.7705 205.614 89.2591C205.844 89.7478 206.159 90.1185 206.56 90.3714C206.96 90.6242 207.416 90.7506 207.928 90.7506C208.402 90.7506 208.816 90.654 209.168 90.4608C209.523 90.2677 209.797 89.9949 209.99 89.6427C210.186 89.2876 210.284 88.8699 210.284 88.3898L210.625 88.4537H208.128V87.3671H211.558V88.36C211.558 89.093 211.402 89.7293 211.09 90.2691C210.78 90.806 210.351 91.2208 209.803 91.5134C209.257 91.806 208.632 91.9523 207.928 91.9523C207.138 91.9523 206.445 91.7705 205.848 91.4069C205.254 91.0432 204.791 90.5276 204.459 89.86C204.127 89.1895 203.96 88.3941 203.96 87.4736C203.96 86.7776 204.057 86.1526 204.25 85.5986C204.443 85.0447 204.715 84.5745 205.064 84.1881C205.416 83.7989 205.83 83.502 206.304 83.2975C206.781 83.0901 207.303 82.9864 207.868 82.9864C208.34 82.9864 208.779 83.056 209.185 83.1952C209.594 83.3344 209.958 83.5319 210.276 83.7876C210.597 84.0432 210.862 84.3472 211.073 84.6995C211.283 85.0489 211.425 85.4367 211.499 85.8628H210.148ZM215.885 91.9651C215.271 91.9651 214.736 91.8245 214.278 91.5432C213.821 91.262 213.466 90.8685 213.213 90.3628C212.96 89.8572 212.834 89.2662 212.834 88.5901C212.834 87.9111 212.96 87.3174 213.213 86.8089C213.466 86.3003 213.821 85.9055 214.278 85.6242C214.736 85.343 215.271 85.2023 215.885 85.2023C216.498 85.2023 217.034 85.343 217.491 85.6242C217.949 85.9055 218.304 86.3003 218.557 86.8089C218.81 87.3174 218.936 87.9111 218.936 88.5901C218.936 89.2662 218.81 89.8572 218.557 90.3628C218.304 90.8685 217.949 91.262 217.491 91.5432C217.034 91.8245 216.498 91.9651 215.885 91.9651ZM215.889 90.8955C216.287 90.8955 216.616 90.7904 216.878 90.5802C217.139 90.3699 217.332 90.0901 217.457 89.7407C217.585 89.3912 217.649 89.0063 217.649 88.5858C217.649 88.1682 217.585 87.7847 217.457 87.4353C217.332 87.083 217.139 86.8003 216.878 86.5873C216.616 86.3742 216.287 86.2677 215.889 86.2677C215.489 86.2677 215.156 86.3742 214.892 86.5873C214.631 86.8003 214.436 87.083 214.308 87.4353C214.183 87.7847 214.121 88.1682 214.121 88.5858C214.121 89.0063 214.183 89.3912 214.308 89.7407C214.436 90.0901 214.631 90.3699 214.892 90.5802C215.156 90.7904 215.489 90.8955 215.889 90.8955ZM223.115 91.9651C222.502 91.9651 221.966 91.8245 221.509 91.5432C221.051 91.262 220.696 90.8685 220.443 90.3628C220.191 89.8572 220.064 89.2662 220.064 88.5901C220.064 87.9111 220.191 87.3174 220.443 86.8089C220.696 86.3003 221.051 85.9055 221.509 85.6242C221.966 85.343 222.502 85.2023 223.115 85.2023C223.729 85.2023 224.264 85.343 224.722 85.6242C225.179 85.9055 225.534 86.3003 225.787 86.8089C226.04 87.3174 226.166 87.9111 226.166 88.5901C226.166 89.2662 226.04 89.8572 225.787 90.3628C225.534 90.8685 225.179 91.262 224.722 91.5432C224.264 91.8245 223.729 91.9651 223.115 91.9651ZM223.12 90.8955C223.517 90.8955 223.847 90.7904 224.108 90.5802C224.37 90.3699 224.563 90.0901 224.688 89.7407C224.816 89.3912 224.879 89.0063 224.879 88.5858C224.879 88.1682 224.816 87.7847 224.688 87.4353C224.563 87.083 224.37 86.8003 224.108 86.5873C223.847 86.3742 223.517 86.2677 223.12 86.2677C222.719 86.2677 222.387 86.3742 222.122 86.5873C221.861 86.8003 221.666 87.083 221.539 87.4353C221.414 87.7847 221.351 88.1682 221.351 88.5858C221.351 89.0063 221.414 89.3912 221.539 89.7407C221.666 90.0901 221.861 90.3699 222.122 90.5802C222.387 90.7904 222.719 90.8955 223.12 90.8955ZM230.333 94.4239C229.813 94.4239 229.366 94.3557 228.991 94.2194C228.618 94.083 228.315 93.9026 228.079 93.6782C227.843 93.4537 227.667 93.208 227.55 92.941L228.645 92.4893C228.722 92.6143 228.824 92.7464 228.952 92.8856C229.083 93.0276 229.259 93.1483 229.481 93.2478C229.705 93.3472 229.993 93.3969 230.346 93.3969C230.829 93.3969 231.228 93.279 231.543 93.0432C231.859 92.8103 232.016 92.4381 232.016 91.9268V90.6398H231.935C231.859 90.779 231.748 90.9339 231.603 91.1043C231.461 91.2748 231.265 91.4225 231.015 91.5475C230.765 91.6725 230.44 91.735 230.039 91.735C229.522 91.735 229.056 91.6143 228.641 91.3728C228.229 91.1285 227.903 90.7691 227.661 90.2947C227.422 89.8174 227.303 89.2307 227.303 88.5347C227.303 87.8387 227.421 87.2421 227.657 86.7449C227.895 86.2478 228.222 85.8671 228.637 85.6029C229.052 85.3358 229.522 85.2023 230.047 85.2023C230.454 85.2023 230.782 85.2705 231.032 85.4069C231.282 85.5404 231.476 85.6966 231.616 85.8756C231.758 86.0546 231.867 86.2123 231.944 86.3486H232.038V85.2876H233.286V91.9779C233.286 92.5404 233.155 93.002 232.894 93.3628C232.633 93.7236 232.279 93.9907 231.833 94.164C231.39 94.3373 230.89 94.4239 230.333 94.4239ZM230.32 90.6782C230.687 90.6782 230.996 90.593 231.249 90.4225C231.505 90.2492 231.698 90.002 231.829 89.681C231.962 89.3572 232.029 88.9694 232.029 88.5177C232.029 88.0773 231.964 87.6895 231.833 87.3543C231.702 87.0191 231.511 86.7577 231.258 86.5702C231.005 86.3799 230.692 86.2847 230.32 86.2847C229.937 86.2847 229.617 86.3841 229.361 86.583C229.106 86.779 228.913 87.0461 228.782 87.3841C228.654 87.7222 228.59 88.1001 228.59 88.5177C228.59 88.9466 228.655 89.3231 228.786 89.6469C228.917 89.9708 229.11 90.2236 229.366 90.4055C229.624 90.5873 229.942 90.6782 230.32 90.6782ZM236.269 83.1057V91.833H234.995V83.1057H236.269ZM240.804 91.9651C240.159 91.9651 239.604 91.8273 239.138 91.5518C238.675 91.2733 238.317 90.8827 238.064 90.3799C237.814 89.8742 237.689 89.2819 237.689 88.6029C237.689 87.9324 237.814 87.3415 238.064 86.8302C238.317 86.3188 238.669 85.9197 239.121 85.6327C239.576 85.3458 240.107 85.2023 240.715 85.2023C241.084 85.2023 241.442 85.2634 241.789 85.3856C242.135 85.5077 242.446 85.6995 242.722 85.9608C242.997 86.2222 243.215 86.5617 243.374 86.9793C243.533 87.3941 243.612 87.8983 243.612 88.4921V88.9438H238.409V87.9893H242.364C242.364 87.654 242.296 87.3572 242.159 87.0986C242.023 86.8373 241.831 86.6313 241.584 86.4807C241.34 86.3302 241.053 86.2549 240.723 86.2549C240.365 86.2549 240.053 86.343 239.786 86.5191C239.522 86.6924 239.317 86.9197 239.172 87.2009C239.03 87.4793 238.959 87.7819 238.959 88.1086V88.8543C238.959 89.2918 239.036 89.664 239.189 89.9708C239.345 90.2776 239.563 90.512 239.841 90.6739C240.12 90.833 240.445 90.9126 240.817 90.9126C241.058 90.9126 241.279 90.8785 241.478 90.8103C241.676 90.7393 241.848 90.6341 241.993 90.4949C242.138 90.3557 242.249 90.1839 242.326 89.9793L243.531 90.1966C243.435 90.5518 243.262 90.8628 243.012 91.1299C242.764 91.3941 242.453 91.6001 242.078 91.7478C241.706 91.8927 241.281 91.9651 240.804 91.9651Z" fill="#455EED"/>
<rect x="1.17053" y="72.833" width="351" height="31" rx="7.5" stroke="#455EED"/>
<path d="M0.670532 136.833H159.171V134.833H0.670532V136.833Z" fill="#E0E0E0" mask="url(#path-9-inside-1_1_592)"/>
<path d="M174.75 139.969C174.159 139.969 173.641 139.829 173.195 139.547C172.751 139.266 172.405 138.873 172.155 138.367C171.908 137.861 171.784 137.271 171.784 136.594C171.784 135.913 171.908 135.317 172.155 134.809C172.405 134.3 172.751 133.905 173.195 133.624C173.641 133.343 174.159 133.202 174.75 133.202C175.341 133.202 175.858 133.343 176.301 133.624C176.747 133.905 177.094 134.3 177.341 134.809C177.591 135.317 177.716 135.913 177.716 136.594C177.716 137.271 177.591 137.861 177.341 138.367C177.094 138.873 176.747 139.266 176.301 139.547C175.858 139.829 175.341 139.969 174.75 139.969ZM174.75 139.066C175.199 139.066 175.568 138.951 175.858 138.721C176.148 138.491 176.362 138.188 176.501 137.813C176.641 137.438 176.71 137.032 176.71 136.594C176.71 136.157 176.641 135.749 176.501 135.371C176.362 134.994 176.148 134.688 175.858 134.455C175.568 134.222 175.199 134.106 174.75 134.106C174.301 134.106 173.932 134.222 173.642 134.455C173.352 134.688 173.138 134.994 172.999 135.371C172.859 135.749 172.79 136.157 172.79 136.594C172.79 137.032 172.859 137.438 172.999 137.813C173.138 138.188 173.352 138.491 173.642 138.721C173.932 138.951 174.301 139.066 174.75 139.066ZM179.251 139.833V133.288H180.223V134.276H180.291C180.41 133.952 180.626 133.69 180.939 133.488C181.251 133.286 181.603 133.185 181.995 133.185C182.069 133.185 182.162 133.187 182.272 133.19C182.383 133.192 182.467 133.197 182.524 133.202V134.225C182.49 134.217 182.412 134.204 182.289 134.187C182.17 134.167 182.044 134.157 181.91 134.157C181.592 134.157 181.308 134.224 181.058 134.357C180.811 134.488 180.615 134.67 180.47 134.903C180.328 135.133 180.257 135.396 180.257 135.691V139.833H179.251Z" fill="#646363"/>
<path d="M194.171 136.833H352.671V134.833H194.171V136.833Z" fill="#E0E0E0" mask="url(#path-12-inside-2_1_592)"/>
<rect x="0.670532" y="168.333" width="352" height="32" rx="8" fill="#F6F6F6"/>
<g clip-path="url(#clip1_1_592)">
<path d="M10.7274 187.833V179.106H15.9944V180.043H11.7842V182.992H15.7217V183.93H11.7842V186.896H16.0626V187.833H10.7274ZM17.7629 187.833V181.288H18.7345V182.31H18.8197C18.956 181.961 19.1762 181.69 19.4802 181.496C19.7842 181.3 20.1492 181.202 20.5754 181.202C21.0072 181.202 21.3666 181.3 21.6535 181.496C21.9433 181.69 22.1691 181.961 22.331 182.31H22.3992C22.5668 181.972 22.8183 181.704 23.1535 181.505C23.4887 181.303 23.8907 181.202 24.3595 181.202C24.9447 181.202 25.4234 181.386 25.7955 181.752C26.1677 182.116 26.3538 182.682 26.3538 183.452V187.833H25.3481V183.452C25.3481 182.969 25.216 182.624 24.9518 182.417C24.6876 182.209 24.3765 182.106 24.0185 182.106C23.5583 182.106 23.2018 182.245 22.9489 182.523C22.6961 182.799 22.5697 183.148 22.5697 183.572V187.833H21.547V183.35C21.547 182.978 21.4262 182.678 21.1847 182.451C20.9433 182.221 20.6322 182.106 20.2515 182.106C19.9901 182.106 19.7458 182.175 19.5185 182.315C19.2941 182.454 19.1123 182.647 18.9731 182.894C18.8367 183.138 18.7685 183.421 18.7685 183.742V187.833H17.7629ZM30.1187 187.986C29.7039 187.986 29.3275 187.908 28.9894 187.752C28.6514 187.593 28.3829 187.364 28.184 187.066C27.9852 186.765 27.8857 186.401 27.8857 185.975C27.8857 185.6 27.9596 185.296 28.1073 185.063C28.255 184.827 28.4525 184.643 28.6997 184.509C28.9468 184.376 29.2195 184.276 29.5178 184.211C29.819 184.143 30.1215 184.089 30.4255 184.049C30.8232 183.998 31.1457 183.959 31.3928 183.934C31.6428 183.905 31.8247 183.859 31.9383 183.793C32.0548 183.728 32.113 183.614 32.113 183.452V183.418C32.113 182.998 31.9979 182.671 31.7678 182.438C31.5406 182.205 31.1954 182.089 30.7323 182.089C30.2522 182.089 29.8758 182.194 29.6031 182.404C29.3303 182.614 29.1386 182.839 29.0278 183.077L28.0732 182.736C28.2437 182.339 28.471 182.029 28.755 181.807C29.042 181.583 29.3545 181.427 29.6925 181.339C30.0335 181.248 30.3687 181.202 30.6982 181.202C30.9085 181.202 31.1499 181.228 31.4227 181.279C31.6982 181.327 31.9639 181.428 32.2195 181.582C32.4781 181.735 32.6925 181.967 32.863 182.276C33.0335 182.586 33.1187 183.001 33.1187 183.521V187.833H32.113V186.947H32.0619C31.9937 187.089 31.88 187.241 31.721 187.403C31.5619 187.565 31.3502 187.702 31.086 187.816C30.8218 187.93 30.4994 187.986 30.1187 187.986ZM30.2721 187.083C30.6698 187.083 31.005 187.005 31.2778 186.849C31.5533 186.692 31.7607 186.491 31.8999 186.244C32.042 185.996 32.113 185.736 32.113 185.464V184.543C32.0704 184.594 31.9766 184.641 31.8318 184.684C31.6897 184.724 31.5249 184.759 31.3374 184.79C31.1528 184.819 30.9724 184.844 30.7962 184.867C30.6229 184.887 30.4823 184.904 30.3744 184.918C30.113 184.952 29.8687 185.008 29.6414 185.084C29.417 185.158 29.2352 185.271 29.096 185.421C28.9596 185.569 28.8914 185.771 28.8914 186.026C28.8914 186.376 29.0207 186.64 29.2792 186.819C29.5406 186.995 29.8715 187.083 30.2721 187.083ZM34.9543 187.833V181.288H35.9599V187.833H34.9543ZM35.4656 180.197C35.2696 180.197 35.1006 180.13 34.9585 179.996C34.8193 179.863 34.7497 179.702 34.7497 179.515C34.7497 179.327 34.8193 179.167 34.9585 179.033C35.1006 178.9 35.2696 178.833 35.4656 178.833C35.6617 178.833 35.8293 178.9 35.9685 179.033C36.1105 179.167 36.1815 179.327 36.1815 179.515C36.1815 179.702 36.1105 179.863 35.9685 179.996C35.8293 180.13 35.6617 180.197 35.4656 180.197ZM38.8076 179.106V187.833H37.8019V179.106H38.8076Z" fill="#646363"/>
</g>
<rect x="0.670532" y="216.333" width="352" height="32" rx="8" fill="#F6F6F6"/>
<g clip-path="url(#clip2_1_592)">
<path d="M10.7274 235.833V227.106H13.6762C14.3609 227.106 14.9205 227.229 15.3552 227.476C15.7927 227.721 16.1166 228.052 16.3268 228.469C16.537 228.887 16.6421 229.353 16.6421 229.867C16.6421 230.381 16.537 230.849 16.3268 231.269C16.1194 231.69 15.7984 232.025 15.3637 232.275C14.9291 232.522 14.3722 232.646 13.6933 232.646H11.5796V231.708H13.6592C14.1279 231.708 14.5043 231.627 14.7884 231.465C15.0725 231.303 15.2785 231.084 15.4063 230.809C15.537 230.53 15.6024 230.217 15.6024 229.867C15.6024 229.518 15.537 229.205 15.4063 228.93C15.2785 228.654 15.0711 228.438 14.7842 228.282C14.4972 228.123 14.1166 228.043 13.6421 228.043H11.7842V235.833H10.7274ZM20.1343 235.986C19.7195 235.986 19.3431 235.908 19.005 235.752C18.667 235.593 18.3985 235.364 18.1997 235.066C18.0008 234.765 17.9014 234.401 17.9014 233.975C17.9014 233.6 17.9752 233.296 18.1229 233.063C18.2707 232.827 18.4681 232.643 18.7153 232.509C18.9624 232.376 19.2352 232.276 19.5335 232.211C19.8346 232.143 20.1372 232.089 20.4411 232.049C20.8389 231.998 21.1613 231.959 21.4085 231.934C21.6585 231.905 21.8403 231.859 21.9539 231.793C22.0704 231.728 22.1286 231.614 22.1286 231.452V231.418C22.1286 230.998 22.0136 230.671 21.7835 230.438C21.5562 230.205 21.211 230.089 20.7479 230.089C20.2678 230.089 19.8914 230.194 19.6187 230.404C19.346 230.614 19.1542 230.839 19.0434 231.077L18.0889 230.736C18.2593 230.339 18.4866 230.029 18.7707 229.807C19.0576 229.583 19.3701 229.427 19.7082 229.339C20.0491 229.248 20.3843 229.202 20.7139 229.202C20.9241 229.202 21.1656 229.228 21.4383 229.279C21.7139 229.327 21.9795 229.428 22.2352 229.582C22.4937 229.735 22.7082 229.967 22.8786 230.276C23.0491 230.586 23.1343 231.001 23.1343 231.521V235.833H22.1286V234.947H22.0775C22.0093 235.089 21.8957 235.241 21.7366 235.403C21.5775 235.565 21.3658 235.702 21.1016 235.816C20.8374 235.93 20.515 235.986 20.1343 235.986ZM20.2877 235.083C20.6854 235.083 21.0207 235.005 21.2934 234.849C21.569 234.692 21.7764 234.491 21.9156 234.244C22.0576 233.996 22.1286 233.736 22.1286 233.464V232.543C22.086 232.594 21.9923 232.641 21.8474 232.684C21.7053 232.724 21.5406 232.759 21.3531 232.79C21.1684 232.819 20.988 232.844 20.8119 232.867C20.6386 232.887 20.4979 232.904 20.39 232.918C20.1286 232.952 19.8843 233.008 19.657 233.084C19.4326 233.158 19.2508 233.271 19.1116 233.421C18.9752 233.569 18.907 233.771 18.907 234.026C18.907 234.376 19.0363 234.64 19.2948 234.819C19.5562 234.995 19.8872 235.083 20.2877 235.083ZM29.6063 230.753L28.7028 231.009C28.646 230.859 28.5622 230.712 28.4514 230.57C28.3435 230.425 28.1957 230.306 28.0082 230.212C27.8207 230.119 27.5807 230.072 27.2881 230.072C26.8875 230.072 26.5537 230.164 26.2867 230.349C26.0224 230.53 25.8903 230.762 25.8903 231.043C25.8903 231.293 25.9813 231.491 26.1631 231.636C26.3449 231.78 26.629 231.901 27.0153 231.998L27.9869 232.236C28.5722 232.378 29.0082 232.596 29.2952 232.888C29.5821 233.178 29.7256 233.552 29.7256 234.009C29.7256 234.384 29.6176 234.719 29.4017 235.015C29.1886 235.31 28.8903 235.543 28.5068 235.714C28.1233 235.884 27.6773 235.969 27.1688 235.969C26.5011 235.969 25.9486 235.824 25.5111 235.535C25.0736 235.245 24.7966 234.822 24.6801 234.265L25.6347 234.026C25.7256 234.378 25.8974 234.643 26.1503 234.819C26.406 234.995 26.7398 235.083 27.1517 235.083C27.6205 235.083 27.9926 234.984 28.2682 234.785C28.5466 234.583 28.6858 234.342 28.6858 234.06C28.6858 233.833 28.6063 233.643 28.4472 233.489C28.2881 233.333 28.0438 233.217 27.7142 233.14L26.6233 232.884C26.0239 232.742 25.5835 232.522 25.3023 232.224C25.0239 231.922 24.8847 231.546 24.8847 231.094C24.8847 230.725 24.9884 230.398 25.1957 230.114C25.406 229.83 25.6915 229.607 26.0523 229.445C26.4159 229.283 26.8278 229.202 27.2881 229.202C27.9358 229.202 28.4443 229.344 28.8136 229.628C29.1858 229.913 29.45 230.288 29.6063 230.753ZM35.8758 230.753L34.9724 231.009C34.9156 230.859 34.8318 230.712 34.721 230.57C34.613 230.425 34.4653 230.306 34.2778 230.212C34.0903 230.119 33.8502 230.072 33.5576 230.072C33.157 230.072 32.8232 230.164 32.5562 230.349C32.292 230.53 32.1599 230.762 32.1599 231.043C32.1599 231.293 32.2508 231.491 32.4326 231.636C32.6144 231.78 32.8985 231.901 33.2849 231.998L34.2565 232.236C34.8417 232.378 35.2778 232.596 35.5647 232.888C35.8516 233.178 35.9951 233.552 35.9951 234.009C35.9951 234.384 35.8872 234.719 35.6712 235.015C35.4582 235.31 35.1599 235.543 34.7764 235.714C34.3928 235.884 33.9468 235.969 33.4383 235.969C32.7707 235.969 32.2181 235.824 31.7806 235.535C31.3431 235.245 31.0661 234.822 30.9497 234.265L31.9042 234.026C31.9951 234.378 32.167 234.643 32.4198 234.819C32.6755 234.995 33.0093 235.083 33.4212 235.083C33.89 235.083 34.2622 234.984 34.5377 234.785C34.8161 234.583 34.9553 234.342 34.9553 234.06C34.9553 233.833 34.8758 233.643 34.7167 233.489C34.5576 233.333 34.3133 233.217 33.9837 233.14L32.8928 232.884C32.2934 232.742 31.8531 232.522 31.5718 232.224C31.2934 231.922 31.1542 231.546 31.1542 231.094C31.1542 230.725 31.2579 230.398 31.4653 230.114C31.6755 229.83 31.961 229.607 32.3218 229.445C32.6854 229.283 33.0974 229.202 33.5576 229.202C34.2053 229.202 34.7139 229.344 35.0832 229.628C35.4553 229.913 35.7195 230.288 35.8758 230.753ZM38.9919 235.833L36.9976 229.288H38.0544L39.4692 234.299H39.5374L40.9351 229.288H42.009L43.3896 234.282H43.4578L44.8726 229.288H45.9294L43.9351 235.833H42.9465L41.5146 230.805H41.4124L39.9805 235.833H38.9919ZM49.6954 235.969C49.1045 235.969 48.586 235.829 48.14 235.547C47.6968 235.266 47.3502 234.873 47.1002 234.367C46.8531 233.861 46.7295 233.271 46.7295 232.594C46.7295 231.913 46.8531 231.317 47.1002 230.809C47.3502 230.3 47.6968 229.905 48.14 229.624C48.586 229.343 49.1045 229.202 49.6954 229.202C50.2863 229.202 50.8033 229.343 51.2465 229.624C51.6925 229.905 52.0391 230.3 52.2863 230.809C52.5363 231.317 52.6613 231.913 52.6613 232.594C52.6613 233.271 52.5363 233.861 52.2863 234.367C52.0391 234.873 51.6925 235.266 51.2465 235.547C50.8033 235.829 50.2863 235.969 49.6954 235.969ZM49.6954 235.066C50.1443 235.066 50.5136 234.951 50.8033 234.721C51.0931 234.491 51.3076 234.188 51.4468 233.813C51.586 233.438 51.6556 233.032 51.6556 232.594C51.6556 232.157 51.586 231.749 51.4468 231.371C51.3076 230.994 51.0931 230.688 50.8033 230.455C50.5136 230.222 50.1443 230.106 49.6954 230.106C49.2465 230.106 48.8772 230.222 48.5874 230.455C48.2977 230.688 48.0832 230.994 47.944 231.371C47.8048 231.749 47.7352 232.157 47.7352 232.594C47.7352 233.032 47.8048 233.438 47.944 233.813C48.0832 234.188 48.2977 234.491 48.5874 234.721C48.8772 234.951 49.2465 235.066 49.6954 235.066ZM54.1965 235.833V229.288H55.168V230.276H55.2362C55.3555 229.952 55.5715 229.69 55.884 229.488C56.1965 229.286 56.5487 229.185 56.9408 229.185C57.0146 229.185 57.107 229.187 57.2178 229.19C57.3286 229.192 57.4124 229.197 57.4692 229.202V230.225C57.4351 230.217 57.357 230.204 57.2348 230.187C57.1155 230.167 56.9891 230.157 56.8555 230.157C56.5374 230.157 56.2533 230.224 56.0033 230.357C55.7561 230.488 55.5601 230.67 55.4152 230.903C55.2732 231.133 55.2021 231.396 55.2021 231.691V235.833H54.1965ZM60.9337 235.969C60.3882 235.969 59.9067 235.832 59.4891 235.556C59.0715 235.278 58.7448 234.886 58.509 234.38C58.2732 233.871 58.1553 233.271 58.1553 232.577C58.1553 231.89 58.2732 231.293 58.509 230.788C58.7448 230.282 59.0729 229.891 59.4933 229.616C59.9138 229.34 60.3996 229.202 60.9507 229.202C61.3769 229.202 61.7135 229.273 61.9607 229.415C62.2107 229.555 62.401 229.714 62.5317 229.893C62.6652 230.069 62.7689 230.214 62.8428 230.327H62.928V227.106H63.9337V235.833H62.9621V234.827H62.8428C62.7689 234.947 62.6638 235.097 62.5274 235.279C62.3911 235.458 62.1965 235.619 61.9436 235.761C61.6908 235.9 61.3541 235.969 60.9337 235.969ZM61.07 235.066C61.4734 235.066 61.8144 234.961 62.0928 234.751C62.3712 234.538 62.5828 234.244 62.7277 233.869C62.8726 233.491 62.945 233.055 62.945 232.56C62.945 232.072 62.874 231.644 62.732 231.278C62.5899 230.908 62.3797 230.621 62.1013 230.417C61.8229 230.209 61.4791 230.106 61.07 230.106C60.6439 230.106 60.2888 230.215 60.0047 230.434C59.7234 230.65 59.5118 230.944 59.3698 231.316C59.2305 231.685 59.1609 232.1 59.1609 232.56C59.1609 233.026 59.232 233.449 59.374 233.83C59.5189 234.208 59.732 234.509 60.0132 234.734C60.2973 234.955 60.6496 235.066 61.07 235.066Z" fill="#646363"/>
</g>
<g clip-path="url(#clip3_1_592)">
<path fill-rule="evenodd" clip-rule="evenodd" d="M337.76 237.476C334.079 237.476 331.094 233.514 331.094 233.514C331.094 233.514 334.079 229.553 337.761 229.553C341.442 229.553 344.427 233.515 344.427 233.515C344.427 233.515 341.442 237.477 337.761 237.477L337.76 237.476ZM333.682 234.723C333.23 234.35 332.805 233.947 332.408 233.515C332.718 233.177 333.154 232.741 333.682 232.307C334.823 231.37 336.266 230.553 337.762 230.553C339.258 230.553 340.7 231.37 341.842 232.307C342.37 232.741 342.805 233.177 343.116 233.515C342.805 233.853 342.37 234.289 341.841 234.723C340.7 235.66 339.258 236.477 337.761 236.477C336.266 236.477 334.823 235.66 333.682 234.723ZM339.025 233.101C339.256 233.101 339.465 233.008 339.618 232.858C339.767 233.277 339.769 233.734 339.624 234.154C339.479 234.574 339.196 234.933 338.82 235.17C338.445 235.408 338 235.511 337.558 235.463C337.116 235.414 336.704 235.217 336.389 234.903C336.074 234.59 335.875 234.178 335.824 233.737C335.774 233.295 335.875 232.849 336.111 232.473C336.348 232.096 336.705 231.811 337.124 231.664C337.544 231.518 338.001 231.518 338.42 231.665C338.304 231.784 338.226 231.934 338.195 232.097C338.164 232.26 338.182 232.429 338.246 232.582C338.31 232.735 338.418 232.866 338.557 232.958C338.695 233.05 338.857 233.099 339.023 233.099L339.025 233.101Z" fill="#111111"/>
</g>
<path d="M34.6293 275.833V267.106H37.7401C38.4163 267.106 38.9774 267.222 39.4234 267.455C39.8722 267.688 40.2075 268.011 40.4291 268.422C40.6506 268.832 40.7614 269.305 40.7614 269.842C40.7614 270.376 40.6492 270.846 40.4248 271.252C40.2032 271.655 39.868 271.969 39.4191 272.194C38.9731 272.418 38.412 272.53 37.7359 272.53H35.3793V271.397H37.6166C38.0427 271.397 38.3893 271.336 38.6563 271.214C38.9262 271.092 39.1237 270.914 39.2487 270.681C39.3737 270.448 39.4362 270.168 39.4362 269.842C39.4362 269.512 39.3722 269.226 39.2444 268.985C39.1194 268.744 38.922 268.559 38.6521 268.431C38.385 268.3 38.0342 268.235 37.5995 268.235H35.9461V275.833H34.6293ZM38.9376 271.896L41.0938 275.833H39.5938L37.4802 271.896H38.9376ZM45.0004 275.965C44.3555 275.965 43.8001 275.827 43.3342 275.552C42.8712 275.273 42.5132 274.883 42.2604 274.38C42.0104 273.874 41.8854 273.282 41.8854 272.603C41.8854 271.932 42.0104 271.342 42.2604 270.83C42.5132 270.319 42.8655 269.92 43.3172 269.633C43.7717 269.346 44.303 269.202 44.9109 269.202C45.2803 269.202 45.6382 269.263 45.9848 269.386C46.3314 269.508 46.6425 269.699 46.918 269.961C47.1936 270.222 47.4109 270.562 47.57 270.979C47.7291 271.394 47.8087 271.898 47.8087 272.492V272.944H42.6055V271.989H46.5601C46.5601 271.654 46.4919 271.357 46.3555 271.099C46.2192 270.837 46.0274 270.631 45.7803 270.481C45.5359 270.33 45.249 270.255 44.9195 270.255C44.5615 270.255 44.249 270.343 43.982 270.519C43.7178 270.692 43.5132 270.92 43.3683 271.201C43.2263 271.479 43.1553 271.782 43.1553 272.109V272.854C43.1553 273.292 43.232 273.664 43.3854 273.971C43.5416 274.278 43.759 274.512 44.0374 274.674C44.3158 274.833 44.6411 274.913 45.0132 274.913C45.2547 274.913 45.4749 274.878 45.6737 274.81C45.8726 274.739 46.0445 274.634 46.1894 274.495C46.3342 274.356 46.445 274.184 46.5217 273.979L47.7277 274.197C47.6311 274.552 47.4578 274.863 47.2078 275.13C46.9607 275.394 46.6496 275.6 46.2746 275.748C45.9024 275.893 45.4777 275.965 45.0004 275.965ZM49.2224 275.833V269.288H50.4454V270.353H50.5264C50.6627 269.992 50.8857 269.711 51.1954 269.509C51.505 269.305 51.8758 269.202 52.3076 269.202C52.7451 269.202 53.1116 269.305 53.407 269.509C53.7053 269.714 53.9255 269.995 54.0675 270.353H54.1357C54.292 270.003 54.5406 269.725 54.8815 269.518C55.2224 269.307 55.6286 269.202 56.1002 269.202C56.694 269.202 57.1783 269.388 57.5533 269.761C57.9312 270.133 58.1201 270.694 58.1201 271.444V275.833H56.846V271.563C56.846 271.12 56.7252 270.799 56.4837 270.6C56.2423 270.401 55.9539 270.302 55.6187 270.302C55.2039 270.302 54.8815 270.43 54.6514 270.685C54.4212 270.938 54.3062 271.263 54.3062 271.661V275.833H53.0363V271.482C53.0363 271.127 52.9255 270.842 52.7039 270.626C52.4823 270.41 52.194 270.302 51.8389 270.302C51.5974 270.302 51.3744 270.366 51.1698 270.494C50.9681 270.619 50.8048 270.793 50.6798 271.018C50.5576 271.242 50.4965 271.502 50.4965 271.797V275.833H49.2224ZM62.6489 275.965C62.004 275.965 61.4486 275.827 60.9827 275.552C60.5196 275.273 60.1617 274.883 59.9088 274.38C59.6588 273.874 59.5338 273.282 59.5338 272.603C59.5338 271.932 59.6588 271.342 59.9088 270.83C60.1617 270.319 60.5139 269.92 60.9656 269.633C61.4202 269.346 61.9514 269.202 62.5594 269.202C62.9287 269.202 63.2867 269.263 63.6332 269.386C63.9798 269.508 64.2909 269.699 64.5665 269.961C64.8421 270.222 65.0594 270.562 65.2185 270.979C65.3776 271.394 65.4571 271.898 65.4571 272.492V272.944H60.254V271.989H64.2085C64.2085 271.654 64.1403 271.357 64.004 271.099C63.8676 270.837 63.6759 270.631 63.4287 270.481C63.1844 270.33 62.8974 270.255 62.5679 270.255C62.2099 270.255 61.8974 270.343 61.6304 270.519C61.3662 270.692 61.1617 270.92 61.0168 271.201C60.8747 271.479 60.8037 271.782 60.8037 272.109V272.854C60.8037 273.292 60.8804 273.664 61.0338 273.971C61.1901 274.278 61.4074 274.512 61.6858 274.674C61.9642 274.833 62.2895 274.913 62.6617 274.913C62.9031 274.913 63.1233 274.878 63.3222 274.81C63.521 274.739 63.6929 274.634 63.8378 274.495C63.9827 274.356 64.0935 274.184 64.1702 273.979L65.3761 274.197C65.2796 274.552 65.1063 274.863 64.8563 275.13C64.6091 275.394 64.298 275.6 63.923 275.748C63.5509 275.893 63.1261 275.965 62.6489 275.965ZM66.8708 275.833V269.288H68.0938V270.353H68.1748C68.3112 269.992 68.5342 269.711 68.8438 269.509C69.1535 269.305 69.5242 269.202 69.956 269.202C70.3935 269.202 70.76 269.305 71.0555 269.509C71.3538 269.714 71.5739 269.995 71.716 270.353H71.7842C71.9404 270.003 72.189 269.725 72.5299 269.518C72.8708 269.307 73.2771 269.202 73.7487 269.202C74.3424 269.202 74.8268 269.388 75.2018 269.761C75.5796 270.133 75.7685 270.694 75.7685 271.444V275.833H74.4944V271.563C74.4944 271.12 74.3737 270.799 74.1322 270.6C73.8907 270.401 73.6024 270.302 73.2671 270.302C72.8524 270.302 72.5299 270.43 72.2998 270.685C72.0697 270.938 71.9546 271.263 71.9546 271.661V275.833H70.6847V271.482C70.6847 271.127 70.5739 270.842 70.3524 270.626C70.1308 270.41 69.8424 270.302 69.4873 270.302C69.2458 270.302 69.0228 270.366 68.8183 270.494C68.6166 270.619 68.4532 270.793 68.3282 271.018C68.206 271.242 68.145 271.502 68.145 271.797V275.833H66.8708ZM77.5786 275.833V267.106H78.8527V270.349H78.9294C79.0033 270.212 79.1098 270.055 79.249 269.876C79.3882 269.697 79.5814 269.54 79.8286 269.407C80.0757 269.271 80.4024 269.202 80.8087 269.202C81.3371 269.202 81.8087 269.336 82.2234 269.603C82.6382 269.87 82.9635 270.255 83.1993 270.758C83.4379 271.261 83.5573 271.866 83.5573 272.573C83.5573 273.28 83.4394 273.887 83.2036 274.393C82.9678 274.896 82.6439 275.283 82.232 275.556C81.82 275.826 81.3499 275.961 80.8215 275.961C80.4237 275.961 80.0984 275.894 79.8456 275.761C79.5956 275.627 79.3996 275.471 79.2575 275.292C79.1155 275.113 79.0061 274.954 78.9294 274.815H78.8229V275.833H77.5786ZM78.8271 272.56C78.8271 273.021 78.8939 273.424 79.0274 273.771C79.1609 274.117 79.3541 274.388 79.607 274.584C79.8598 274.778 80.1695 274.874 80.5359 274.874C80.9166 274.874 81.2348 274.773 81.4905 274.572C81.7462 274.367 81.9394 274.09 82.07 273.741C82.2036 273.391 82.2703 272.998 82.2703 272.56C82.2703 272.128 82.205 271.741 82.0743 271.397C81.9465 271.053 81.7533 270.782 81.4948 270.583C81.2391 270.384 80.9195 270.285 80.5359 270.285C80.1666 270.285 79.8541 270.38 79.5984 270.57C79.3456 270.761 79.1538 271.026 79.0232 271.367C78.8925 271.708 78.8271 272.106 78.8271 272.56ZM87.809 275.965C87.1641 275.965 86.6087 275.827 86.1428 275.552C85.6798 275.273 85.3218 274.883 85.069 274.38C84.819 273.874 84.694 273.282 84.694 272.603C84.694 271.932 84.819 271.342 85.069 270.83C85.3218 270.319 85.6741 269.92 86.1258 269.633C86.5803 269.346 87.1116 269.202 87.7195 269.202C88.0889 269.202 88.4468 269.263 88.7934 269.386C89.14 269.508 89.4511 269.699 89.7266 269.961C90.0022 270.222 90.2195 270.562 90.3786 270.979C90.5377 271.394 90.6173 271.898 90.6173 272.492V272.944H85.4141V271.989H89.3687C89.3687 271.654 89.3005 271.357 89.1641 271.099C89.0278 270.837 88.836 270.631 88.5889 270.481C88.3445 270.33 88.0576 270.255 87.7281 270.255C87.3701 270.255 87.0576 270.343 86.7906 270.519C86.5264 270.692 86.3218 270.92 86.1769 271.201C86.0349 271.479 85.9639 271.782 85.9639 272.109V272.854C85.9639 273.292 86.0406 273.664 86.194 273.971C86.3502 274.278 86.5675 274.512 86.846 274.674C87.1244 274.833 87.4497 274.913 87.8218 274.913C88.0633 274.913 88.2835 274.878 88.4823 274.81C88.6812 274.739 88.8531 274.634 88.9979 274.495C89.1428 274.356 89.2536 274.184 89.3303 273.979L90.5363 274.197C90.4397 274.552 90.2664 274.863 90.0164 275.13C89.7693 275.394 89.4582 275.6 89.0832 275.748C88.711 275.893 88.2863 275.965 87.809 275.965ZM92.031 275.833V269.288H93.2625V270.327H93.3307C93.45 269.975 93.6602 269.698 93.9614 269.496C94.2653 269.292 94.6091 269.19 94.9926 269.19C95.0722 269.19 95.1659 269.192 95.2739 269.198C95.3847 269.204 95.4713 269.211 95.5338 269.219V270.438C95.4827 270.424 95.3918 270.408 95.2611 270.391C95.1304 270.371 94.9997 270.361 94.869 270.361C94.5679 270.361 94.2994 270.425 94.0636 270.553C93.8307 270.678 93.646 270.853 93.5097 271.077C93.3733 271.299 93.3051 271.552 93.3051 271.836V275.833H92.031ZM99.8122 275.833V269.288H101.035V270.353H101.116C101.253 269.992 101.476 269.711 101.785 269.509C102.095 269.305 102.466 269.202 102.897 269.202C103.335 269.202 103.701 269.305 103.997 269.509C104.295 269.714 104.515 269.995 104.657 270.353H104.726C104.882 270.003 105.13 269.725 105.471 269.518C105.812 269.307 106.218 269.202 106.69 269.202C107.284 269.202 107.768 269.388 108.143 269.761C108.521 270.133 108.71 270.694 108.71 271.444V275.833H107.436V271.563C107.436 271.12 107.315 270.799 107.074 270.6C106.832 270.401 106.544 270.302 106.209 270.302C105.794 270.302 105.471 270.43 105.241 270.685C105.011 270.938 104.896 271.263 104.896 271.661V275.833H103.626V271.482C103.626 271.127 103.515 270.842 103.294 270.626C103.072 270.41 102.784 270.302 102.429 270.302C102.187 270.302 101.964 270.366 101.76 270.494C101.558 270.619 101.395 270.793 101.27 271.018C101.147 271.242 101.086 271.502 101.086 271.797V275.833H99.8122ZM113.239 275.965C112.594 275.965 112.038 275.827 111.573 275.552C111.109 275.273 110.751 274.883 110.499 274.38C110.249 273.874 110.124 273.282 110.124 272.603C110.124 271.932 110.249 271.342 110.499 270.83C110.751 270.319 111.104 269.92 111.555 269.633C112.01 269.346 112.541 269.202 113.149 269.202C113.519 269.202 113.876 269.263 114.223 269.386C114.57 269.508 114.881 269.699 115.156 269.961C115.432 270.222 115.649 270.562 115.808 270.979C115.967 271.394 116.047 271.898 116.047 272.492V272.944H110.844V271.989H114.798C114.798 271.654 114.73 271.357 114.594 271.099C114.457 270.837 114.266 270.631 114.019 270.481C113.774 270.33 113.487 270.255 113.158 270.255C112.8 270.255 112.487 270.343 112.22 270.519C111.956 270.692 111.751 270.92 111.607 271.201C111.465 271.479 111.394 271.782 111.394 272.109V272.854C111.394 273.292 111.47 273.664 111.624 273.971C111.78 274.278 111.997 274.512 112.276 274.674C112.554 274.833 112.879 274.913 113.251 274.913C113.493 274.913 113.713 274.878 113.912 274.81C114.111 274.739 114.283 274.634 114.428 274.495C114.573 274.356 114.683 274.184 114.76 273.979L115.966 274.197C115.869 274.552 115.696 274.863 115.446 275.13C115.199 275.394 114.888 275.6 114.513 275.748C114.141 275.893 113.716 275.965 113.239 275.965Z" fill="#111111"/>
<rect x="11.6705" y="266.333" width="12" height="12" rx="6" fill="white"/>
<g clip-path="url(#clip4_1_592)">
<path d="M23.3176 270.451C23.3176 269.452 22.921 268.495 22.215 267.789C21.5089 267.083 20.5514 266.686 19.5529 266.686H15.7882C14.7897 266.686 13.8322 267.083 13.1262 267.789C12.4201 268.495 12.0235 269.452 12.0235 270.451V274.215C12.0235 275.214 12.4201 276.171 13.1262 276.877C13.8322 277.584 14.7897 277.98 15.7882 277.98H19.5529C20.5514 277.98 21.5089 277.584 22.215 276.877C22.921 276.171 23.3176 275.214 23.3176 274.215V270.451Z" fill="white"/>
<path fill-rule="evenodd" clip-rule="evenodd" d="M20.8075 267.627H14.5336C13.6677 267.627 12.9647 268.329 12.9647 269.196V275.47C12.9647 276.336 13.6668 277.039 14.5336 277.039H20.8075C21.6734 277.039 22.3764 276.337 22.3764 275.47V269.196C22.3764 268.33 21.6743 267.627 20.8075 267.627ZM14.5336 266.686C13.8679 266.686 13.2294 266.95 12.7587 267.421C12.288 267.892 12.0235 268.53 12.0235 269.196V275.47C12.0235 276.136 12.288 276.774 12.7587 277.245C13.2294 277.716 13.8679 277.98 14.5336 277.98H20.8075C21.4732 277.98 22.1117 277.716 22.5824 277.245C23.0532 276.774 23.3176 276.136 23.3176 275.47V269.196C23.3176 268.53 23.0532 267.892 22.5824 267.421C22.1117 266.95 21.4732 266.686 20.8075 266.686H14.5336Z" fill="#646363"/>
</g>
<path d="M251.727 276.083V267.356H256.96V268.293H252.784V271.242H256.568V272.18H252.784V276.083H251.727ZM260.813 276.219C260.222 276.219 259.703 276.079 259.257 275.797C258.814 275.516 258.467 275.123 258.217 274.617C257.97 274.111 257.847 273.521 257.847 272.844C257.847 272.163 257.97 271.567 258.217 271.059C258.467 270.55 258.814 270.155 259.257 269.874C259.703 269.593 260.222 269.452 260.813 269.452C261.403 269.452 261.921 269.593 262.364 269.874C262.81 270.155 263.156 270.55 263.403 271.059C263.653 271.567 263.778 272.163 263.778 272.844C263.778 273.521 263.653 274.111 263.403 274.617C263.156 275.123 262.81 275.516 262.364 275.797C261.921 276.079 261.403 276.219 260.813 276.219ZM260.813 275.316C261.261 275.316 261.631 275.201 261.921 274.971C262.21 274.741 262.425 274.438 262.564 274.063C262.703 273.688 262.773 273.282 262.773 272.844C262.773 272.407 262.703 271.999 262.564 271.621C262.425 271.244 262.21 270.938 261.921 270.705C261.631 270.472 261.261 270.356 260.813 270.356C260.364 270.356 259.994 270.472 259.705 270.705C259.415 270.938 259.2 271.244 259.061 271.621C258.922 271.999 258.852 272.407 258.852 272.844C258.852 273.282 258.922 273.688 259.061 274.063C259.2 274.438 259.415 274.741 259.705 274.971C259.994 275.201 260.364 275.316 260.813 275.316ZM265.314 276.083V269.538H266.285V270.526H266.353C266.473 270.202 266.689 269.94 267.001 269.738C267.314 269.536 267.666 269.435 268.058 269.435C268.132 269.435 268.224 269.437 268.335 269.44C268.446 269.442 268.53 269.447 268.586 269.452V270.475C268.552 270.467 268.474 270.454 268.352 270.437C268.233 270.417 268.106 270.407 267.973 270.407C267.655 270.407 267.37 270.474 267.12 270.607C266.873 270.738 266.677 270.92 266.532 271.153C266.39 271.383 266.319 271.646 266.319 271.941V276.083H265.314ZM272.221 278.674C271.736 278.674 271.318 278.611 270.968 278.486C270.619 278.364 270.328 278.202 270.095 278.001C269.865 277.802 269.682 277.589 269.545 277.361L270.346 276.799C270.437 276.918 270.552 277.055 270.691 277.208C270.831 277.364 271.021 277.499 271.263 277.613C271.507 277.729 271.826 277.788 272.221 277.788C272.75 277.788 273.186 277.66 273.53 277.404C273.873 277.148 274.045 276.748 274.045 276.202V274.873H273.96C273.886 274.992 273.781 275.14 273.645 275.316C273.511 275.489 273.318 275.644 273.065 275.78C272.815 275.914 272.477 275.981 272.051 275.981C271.522 275.981 271.048 275.856 270.628 275.606C270.21 275.356 269.879 274.992 269.635 274.515C269.393 274.038 269.272 273.458 269.272 272.776C269.272 272.106 269.39 271.522 269.626 271.025C269.862 270.525 270.19 270.138 270.611 269.866C271.031 269.59 271.517 269.452 272.068 269.452C272.494 269.452 272.832 269.523 273.082 269.665C273.335 269.805 273.528 269.964 273.662 270.143C273.798 270.319 273.903 270.464 273.977 270.577H274.079V269.538H275.051V276.271C275.051 276.833 274.923 277.29 274.667 277.643C274.414 277.998 274.074 278.258 273.645 278.422C273.218 278.59 272.744 278.674 272.221 278.674ZM272.187 275.077C272.591 275.077 272.932 274.985 273.21 274.8C273.488 274.616 273.7 274.35 273.845 274.003C273.99 273.657 274.062 273.242 274.062 272.759C274.062 272.288 273.991 271.871 273.849 271.511C273.707 271.15 273.497 270.867 273.218 270.663C272.94 270.458 272.596 270.356 272.187 270.356C271.761 270.356 271.406 270.464 271.122 270.68C270.841 270.896 270.629 271.185 270.487 271.549C270.348 271.913 270.278 272.316 270.278 272.759C270.278 273.214 270.349 273.616 270.491 273.965C270.636 274.312 270.849 274.584 271.13 274.783C271.414 274.979 271.767 275.077 272.187 275.077ZM279.551 276.219C278.96 276.219 278.441 276.079 277.995 275.797C277.552 275.516 277.206 275.123 276.956 274.617C276.709 274.111 276.585 273.521 276.585 272.844C276.585 272.163 276.709 271.567 276.956 271.059C277.206 270.55 277.552 270.155 277.995 269.874C278.441 269.593 278.96 269.452 279.551 269.452C280.142 269.452 280.659 269.593 281.102 269.874C281.548 270.155 281.895 270.55 282.142 271.059C282.392 271.567 282.517 272.163 282.517 272.844C282.517 273.521 282.392 274.111 282.142 274.617C281.895 275.123 281.548 275.516 281.102 275.797C280.659 276.079 280.142 276.219 279.551 276.219ZM279.551 275.316C280 275.316 280.369 275.201 280.659 274.971C280.949 274.741 281.163 274.438 281.302 274.063C281.441 273.688 281.511 273.282 281.511 272.844C281.511 272.407 281.441 271.999 281.302 271.621C281.163 271.244 280.949 270.938 280.659 270.705C280.369 270.472 280 270.356 279.551 270.356C279.102 270.356 278.733 270.472 278.443 270.705C278.153 270.938 277.939 271.244 277.799 271.621C277.66 271.999 277.591 272.407 277.591 272.844C277.591 273.282 277.66 273.688 277.799 274.063C277.939 274.438 278.153 274.741 278.443 274.971C278.733 275.201 279.102 275.316 279.551 275.316ZM286.899 269.538V270.39H283.506V269.538H286.899ZM284.495 267.969H285.501V274.208C285.501 274.492 285.542 274.705 285.624 274.847C285.71 274.986 285.818 275.08 285.948 275.128C286.082 275.174 286.222 275.197 286.37 275.197C286.481 275.197 286.572 275.191 286.643 275.18C286.714 275.165 286.771 275.154 286.813 275.146L287.018 276.049C286.95 276.074 286.854 276.1 286.732 276.126C286.61 276.154 286.455 276.168 286.268 276.168C285.984 276.168 285.705 276.107 285.433 275.985C285.163 275.863 284.938 275.677 284.759 275.427C284.583 275.177 284.495 274.861 284.495 274.481V267.969ZM291.786 278.538V269.538H292.758V270.577H292.877C292.951 270.464 293.053 270.319 293.184 270.143C293.318 269.964 293.508 269.805 293.755 269.665C294.005 269.523 294.343 269.452 294.769 269.452C295.32 269.452 295.806 269.59 296.227 269.866C296.647 270.141 296.975 270.532 297.211 271.038C297.447 271.543 297.565 272.14 297.565 272.827C297.565 273.521 297.447 274.121 297.211 274.63C296.975 275.136 296.649 275.528 296.231 275.806C295.813 276.082 295.332 276.219 294.786 276.219C294.366 276.219 294.029 276.15 293.776 276.011C293.524 275.869 293.329 275.708 293.193 275.529C293.056 275.347 292.951 275.197 292.877 275.077H292.792V278.538H291.786ZM292.775 272.81C292.775 273.305 292.847 273.741 292.992 274.119C293.137 274.494 293.349 274.788 293.627 275.001C293.906 275.211 294.247 275.316 294.65 275.316C295.07 275.316 295.421 275.205 295.702 274.984C295.987 274.759 296.2 274.458 296.342 274.08C296.487 273.699 296.559 273.276 296.559 272.81C296.559 272.35 296.488 271.935 296.346 271.566C296.207 271.194 295.995 270.9 295.711 270.684C295.43 270.465 295.076 270.356 294.65 270.356C294.241 270.356 293.897 270.459 293.619 270.667C293.34 270.871 293.13 271.158 292.988 271.528C292.846 271.894 292.775 272.322 292.775 272.81ZM301.025 276.236C300.61 276.236 300.234 276.158 299.896 276.002C299.558 275.843 299.289 275.614 299.09 275.316C298.891 275.015 298.792 274.651 298.792 274.225C298.792 273.85 298.866 273.546 299.014 273.313C299.161 273.077 299.359 272.893 299.606 272.759C299.853 272.626 300.126 272.526 300.424 272.461C300.725 272.393 301.028 272.339 301.332 272.299C301.729 272.248 302.052 272.209 302.299 272.184C302.549 272.155 302.731 272.109 302.845 272.043C302.961 271.978 303.019 271.864 303.019 271.702V271.668C303.019 271.248 302.904 270.921 302.674 270.688C302.447 270.455 302.102 270.339 301.639 270.339C301.158 270.339 300.782 270.444 300.509 270.654C300.237 270.864 300.045 271.089 299.934 271.327L298.979 270.986C299.15 270.589 299.377 270.279 299.661 270.057C299.948 269.833 300.261 269.677 300.599 269.589C300.94 269.498 301.275 269.452 301.604 269.452C301.815 269.452 302.056 269.478 302.329 269.529C302.604 269.577 302.87 269.678 303.126 269.832C303.384 269.985 303.599 270.217 303.769 270.526C303.94 270.836 304.025 271.251 304.025 271.771V276.083H303.019V275.197H302.968C302.9 275.339 302.786 275.491 302.627 275.653C302.468 275.815 302.256 275.952 301.992 276.066C301.728 276.18 301.406 276.236 301.025 276.236ZM301.178 275.333C301.576 275.333 301.911 275.255 302.184 275.099C302.46 274.942 302.667 274.741 302.806 274.494C302.948 274.246 303.019 273.986 303.019 273.714V272.793C302.977 272.844 302.883 272.891 302.738 272.934C302.596 272.974 302.431 273.009 302.244 273.04C302.059 273.069 301.879 273.094 301.702 273.117C301.529 273.137 301.389 273.154 301.281 273.168C301.019 273.202 300.775 273.258 300.548 273.334C300.323 273.408 300.141 273.521 300.002 273.671C299.866 273.819 299.798 274.021 299.798 274.276C299.798 274.626 299.927 274.89 300.185 275.069C300.447 275.245 300.778 275.333 301.178 275.333ZM310.497 271.003L309.593 271.259C309.537 271.109 309.453 270.962 309.342 270.82C309.234 270.675 309.086 270.556 308.899 270.462C308.711 270.369 308.471 270.322 308.179 270.322C307.778 270.322 307.444 270.414 307.177 270.599C306.913 270.78 306.781 271.012 306.781 271.293C306.781 271.543 306.872 271.741 307.054 271.886C307.236 272.03 307.52 272.151 307.906 272.248L308.878 272.486C309.463 272.628 309.899 272.846 310.186 273.138C310.473 273.428 310.616 273.802 310.616 274.259C310.616 274.634 310.508 274.969 310.292 275.265C310.079 275.56 309.781 275.793 309.397 275.964C309.014 276.134 308.568 276.219 308.059 276.219C307.392 276.219 306.839 276.074 306.402 275.785C305.964 275.495 305.687 275.072 305.571 274.515L306.525 274.276C306.616 274.628 306.788 274.893 307.041 275.069C307.297 275.245 307.63 275.333 308.042 275.333C308.511 275.333 308.883 275.234 309.159 275.035C309.437 274.833 309.576 274.592 309.576 274.31C309.576 274.083 309.497 273.893 309.338 273.739C309.179 273.583 308.934 273.467 308.605 273.39L307.514 273.134C306.914 272.992 306.474 272.772 306.193 272.474C305.914 272.172 305.775 271.796 305.775 271.344C305.775 270.975 305.879 270.648 306.086 270.364C306.297 270.08 306.582 269.857 306.943 269.695C307.307 269.533 307.718 269.452 308.179 269.452C308.826 269.452 309.335 269.594 309.704 269.878C310.076 270.163 310.341 270.538 310.497 271.003ZM316.766 271.003L315.863 271.259C315.806 271.109 315.722 270.962 315.612 270.82C315.504 270.675 315.356 270.556 315.168 270.462C314.981 270.369 314.741 270.322 314.448 270.322C314.048 270.322 313.714 270.414 313.447 270.599C313.183 270.78 313.051 271.012 313.051 271.293C313.051 271.543 313.141 271.741 313.323 271.886C313.505 272.03 313.789 272.151 314.176 272.248L315.147 272.486C315.732 272.628 316.168 272.846 316.455 273.138C316.742 273.428 316.886 273.802 316.886 274.259C316.886 274.634 316.778 274.969 316.562 275.265C316.349 275.56 316.051 275.793 315.667 275.964C315.283 276.134 314.837 276.219 314.329 276.219C313.661 276.219 313.109 276.074 312.671 275.785C312.234 275.495 311.957 275.072 311.84 274.515L312.795 274.276C312.886 274.628 313.058 274.893 313.31 275.069C313.566 275.245 313.9 275.333 314.312 275.333C314.781 275.333 315.153 275.234 315.428 275.035C315.707 274.833 315.846 274.592 315.846 274.31C315.846 274.083 315.766 273.893 315.607 273.739C315.448 273.583 315.204 273.467 314.874 273.39L313.783 273.134C313.184 272.992 312.744 272.772 312.462 272.474C312.184 272.172 312.045 271.796 312.045 271.344C312.045 270.975 312.149 270.648 312.356 270.364C312.566 270.08 312.852 269.857 313.212 269.695C313.576 269.533 313.988 269.452 314.448 269.452C315.096 269.452 315.604 269.594 315.974 269.878C316.346 270.163 316.61 270.538 316.766 271.003ZM319.883 276.083L317.888 269.538H318.945L320.36 274.549H320.428L321.826 269.538H322.9L324.28 274.532H324.348L325.763 269.538H326.82L324.826 276.083H323.837L322.405 271.055H322.303L320.871 276.083H319.883ZM330.586 276.219C329.995 276.219 329.477 276.079 329.031 275.797C328.587 275.516 328.241 275.123 327.991 274.617C327.744 274.111 327.62 273.521 327.62 272.844C327.62 272.163 327.744 271.567 327.991 271.059C328.241 270.55 328.587 270.155 329.031 269.874C329.477 269.593 329.995 269.452 330.586 269.452C331.177 269.452 331.694 269.593 332.137 269.874C332.583 270.155 332.93 270.55 333.177 271.059C333.427 271.567 333.552 272.163 333.552 272.844C333.552 273.521 333.427 274.111 333.177 274.617C332.93 275.123 332.583 275.516 332.137 275.797C331.694 276.079 331.177 276.219 330.586 276.219ZM330.586 275.316C331.035 275.316 331.404 275.201 331.694 274.971C331.984 274.741 332.198 274.438 332.337 274.063C332.477 273.688 332.546 273.282 332.546 272.844C332.546 272.407 332.477 271.999 332.337 271.621C332.198 271.244 331.984 270.938 331.694 270.705C331.404 270.472 331.035 270.356 330.586 270.356C330.137 270.356 329.768 270.472 329.478 270.705C329.188 270.938 328.974 271.244 328.835 271.621C328.695 271.999 328.626 272.407 328.626 272.844C328.626 273.282 328.695 273.688 328.835 274.063C328.974 274.438 329.188 274.741 329.478 274.971C329.768 275.201 330.137 275.316 330.586 275.316ZM335.087 276.083V269.538H336.059V270.526H336.127C336.246 270.202 336.462 269.94 336.775 269.738C337.087 269.536 337.439 269.435 337.831 269.435C337.905 269.435 337.998 269.437 338.108 269.44C338.219 269.442 338.303 269.447 338.36 269.452V270.475C338.326 270.467 338.248 270.454 338.125 270.437C338.006 270.417 337.88 270.407 337.746 270.407C337.428 270.407 337.144 270.474 336.894 270.607C336.647 270.738 336.451 270.92 336.306 271.153C336.164 271.383 336.093 271.646 336.093 271.941V276.083H335.087ZM341.824 276.219C341.279 276.219 340.797 276.082 340.38 275.806C339.962 275.528 339.635 275.136 339.4 274.63C339.164 274.121 339.046 273.521 339.046 272.827C339.046 272.14 339.164 271.543 339.4 271.038C339.635 270.532 339.964 270.141 340.384 269.866C340.804 269.59 341.29 269.452 341.841 269.452C342.267 269.452 342.604 269.523 342.851 269.665C343.101 269.805 343.292 269.964 343.422 270.143C343.556 270.319 343.66 270.464 343.733 270.577H343.819V267.356H344.824V276.083H343.853V275.077H343.733C343.66 275.197 343.554 275.347 343.418 275.529C343.282 275.708 343.087 275.869 342.834 276.011C342.581 276.15 342.245 276.219 341.824 276.219ZM341.961 275.316C342.364 275.316 342.705 275.211 342.983 275.001C343.262 274.788 343.473 274.494 343.618 274.119C343.763 273.741 343.836 273.305 343.836 272.81C343.836 272.322 343.765 271.894 343.623 271.528C343.481 271.158 343.27 270.871 342.992 270.667C342.714 270.459 342.37 270.356 341.961 270.356C341.535 270.356 341.179 270.465 340.895 270.684C340.614 270.9 340.402 271.194 340.26 271.566C340.121 271.935 340.052 272.35 340.052 272.81C340.052 273.276 340.123 273.699 340.265 274.08C340.41 274.458 340.623 274.759 340.904 274.984C341.188 275.205 341.54 275.316 341.961 275.316ZM348.118 273.628V273.577C348.124 273.035 348.181 272.603 348.289 272.282C348.397 271.961 348.55 271.701 348.749 271.502C348.948 271.303 349.187 271.12 349.465 270.952C349.633 270.85 349.783 270.729 349.917 270.59C350.05 270.448 350.155 270.285 350.232 270.1C350.312 269.915 350.351 269.711 350.351 269.486C350.351 269.208 350.286 268.967 350.155 268.762C350.025 268.557 349.85 268.4 349.631 268.289C349.412 268.178 349.169 268.123 348.902 268.123C348.669 268.123 348.445 268.171 348.229 268.268C348.013 268.364 347.833 268.516 347.688 268.724C347.543 268.931 347.459 269.202 347.437 269.538H346.363C346.385 269.055 346.51 268.641 346.738 268.297C346.968 267.954 347.27 267.691 347.645 267.509C348.023 267.327 348.442 267.236 348.902 267.236C349.402 267.236 349.837 267.336 350.206 267.535C350.579 267.734 350.865 268.006 351.067 268.353C351.272 268.699 351.374 269.094 351.374 269.538C351.374 269.85 351.326 270.133 351.229 270.386C351.135 270.638 350.999 270.864 350.82 271.063C350.644 271.262 350.431 271.438 350.181 271.592C349.931 271.748 349.731 271.913 349.58 272.086C349.429 272.256 349.32 272.459 349.252 272.695C349.184 272.931 349.147 273.225 349.141 273.577V273.628H348.118ZM348.664 276.151C348.454 276.151 348.273 276.076 348.123 275.925C347.972 275.775 347.897 275.594 347.897 275.384C347.897 275.174 347.972 274.994 348.123 274.843C348.273 274.692 348.454 274.617 348.664 274.617C348.874 274.617 349.054 274.692 349.205 274.843C349.356 274.994 349.431 275.174 349.431 275.384C349.431 275.523 349.395 275.651 349.324 275.768C349.256 275.884 349.164 275.978 349.047 276.049C348.934 276.117 348.806 276.151 348.664 276.151Z" fill="#455EED"/>
<path d="M250.671 278.469H351.971V279.288H250.671V278.469Z" fill="#455EED"/>
<rect x="0.670532" y="312.333" width="352" height="32" rx="8" fill="#A7A5A5"/>
<path d="M163.267 325.398C163.221 324.995 163.034 324.682 162.704 324.461C162.375 324.236 161.96 324.124 161.46 324.124C161.102 324.124 160.792 324.181 160.531 324.295C160.27 324.405 160.067 324.559 159.922 324.755C159.78 324.948 159.709 325.168 159.709 325.415C159.709 325.623 159.757 325.802 159.853 325.952C159.953 326.103 160.082 326.229 160.241 326.332C160.403 326.431 160.576 326.515 160.761 326.583C160.946 326.648 161.123 326.702 161.294 326.745L162.146 326.967C162.424 327.035 162.71 327.127 163.003 327.244C163.295 327.36 163.567 327.513 163.817 327.704C164.067 327.894 164.268 328.13 164.422 328.411C164.578 328.692 164.656 329.029 164.656 329.421C164.656 329.915 164.528 330.354 164.272 330.738C164.02 331.121 163.652 331.424 163.169 331.646C162.689 331.867 162.108 331.978 161.426 331.978C160.772 331.978 160.207 331.874 159.73 331.667C159.253 331.459 158.879 331.165 158.609 330.785C158.339 330.401 158.19 329.947 158.162 329.421H159.483C159.508 329.736 159.611 329.999 159.79 330.209C159.971 330.417 160.203 330.572 160.484 330.674C160.768 330.773 161.079 330.823 161.417 330.823C161.79 330.823 162.12 330.765 162.41 330.648C162.703 330.529 162.933 330.364 163.101 330.154C163.268 329.941 163.352 329.692 163.352 329.408C163.352 329.15 163.278 328.938 163.13 328.773C162.986 328.609 162.788 328.472 162.538 328.364C162.291 328.256 162.011 328.161 161.699 328.079L160.667 327.797C159.968 327.607 159.415 327.327 159.005 326.958C158.599 326.589 158.396 326.1 158.396 325.492C158.396 324.989 158.532 324.55 158.805 324.175C159.078 323.8 159.447 323.509 159.913 323.302C160.379 323.092 160.905 322.986 161.49 322.986C162.081 322.986 162.602 323.09 163.054 323.297C163.508 323.505 163.866 323.79 164.128 324.154C164.389 324.515 164.525 324.93 164.537 325.398H163.267ZM166.127 331.833V325.288H167.401V331.833H166.127ZM166.771 324.278C166.549 324.278 166.359 324.204 166.2 324.056C166.043 323.905 165.965 323.726 165.965 323.519C165.965 323.309 166.043 323.13 166.2 322.982C166.359 322.832 166.549 322.756 166.771 322.756C166.992 322.756 167.181 322.832 167.337 322.982C167.497 323.13 167.576 323.309 167.576 323.519C167.576 323.726 167.497 323.905 167.337 324.056C167.181 324.204 166.992 324.278 166.771 324.278ZM171.86 334.424C171.34 334.424 170.892 334.356 170.517 334.219C170.145 334.083 169.841 333.903 169.606 333.678C169.37 333.454 169.194 333.208 169.077 332.941L170.172 332.489C170.249 332.614 170.351 332.746 170.479 332.886C170.61 333.028 170.786 333.148 171.008 333.248C171.232 333.347 171.52 333.397 171.873 333.397C172.356 333.397 172.755 333.279 173.07 333.043C173.385 332.81 173.543 332.438 173.543 331.927V330.64H173.462C173.385 330.779 173.275 330.934 173.13 331.104C172.988 331.275 172.792 331.422 172.542 331.547C172.292 331.672 171.966 331.735 171.566 331.735C171.049 331.735 170.583 331.614 170.168 331.373C169.756 331.128 169.429 330.769 169.188 330.295C168.949 329.817 168.83 329.231 168.83 328.535C168.83 327.839 168.948 327.242 169.184 326.745C169.422 326.248 169.749 325.867 170.164 325.603C170.579 325.336 171.049 325.202 171.574 325.202C171.981 325.202 172.309 325.271 172.559 325.407C172.809 325.54 173.003 325.697 173.142 325.876C173.285 326.055 173.394 326.212 173.471 326.349H173.564V325.288H174.813V331.978C174.813 332.54 174.682 333.002 174.421 333.363C174.16 333.724 173.806 333.991 173.36 334.164C172.917 334.337 172.417 334.424 171.86 334.424ZM171.847 330.678C172.214 330.678 172.523 330.593 172.776 330.422C173.032 330.249 173.225 330.002 173.356 329.681C173.489 329.357 173.556 328.969 173.556 328.518C173.556 328.077 173.491 327.69 173.36 327.354C173.229 327.019 173.037 326.758 172.785 326.57C172.532 326.38 172.219 326.285 171.847 326.285C171.464 326.285 171.144 326.384 170.888 326.583C170.633 326.779 170.439 327.046 170.309 327.384C170.181 327.722 170.117 328.1 170.117 328.518C170.117 328.947 170.182 329.323 170.313 329.647C170.444 329.971 170.637 330.224 170.892 330.405C171.151 330.587 171.469 330.678 171.847 330.678ZM177.796 327.947V331.833H176.522V325.288H177.745V326.353H177.826C177.976 326.006 178.212 325.728 178.533 325.518C178.857 325.307 179.265 325.202 179.756 325.202C180.202 325.202 180.593 325.296 180.928 325.484C181.263 325.668 181.523 325.944 181.708 326.31C181.892 326.677 181.985 327.13 181.985 327.67V331.833H180.711V327.823C180.711 327.349 180.587 326.978 180.34 326.711C180.093 326.441 179.753 326.306 179.321 326.306C179.026 326.306 178.763 326.37 178.533 326.498C178.306 326.626 178.125 326.813 177.992 327.06C177.861 327.305 177.796 327.6 177.796 327.947ZM186.869 331.833V325.288H188.144V331.833H186.869ZM187.513 324.278C187.291 324.278 187.101 324.204 186.942 324.056C186.786 323.905 186.707 323.726 186.707 323.519C186.707 323.309 186.786 323.13 186.942 322.982C187.101 322.832 187.291 322.756 187.513 322.756C187.734 322.756 187.923 322.832 188.08 322.982C188.239 323.13 188.318 323.309 188.318 323.519C188.318 323.726 188.239 323.905 188.08 324.056C187.923 324.204 187.734 324.278 187.513 324.278ZM191.132 327.947V331.833H189.858V325.288H191.081V326.353H191.162C191.312 326.006 191.548 325.728 191.869 325.518C192.193 325.307 192.601 325.202 193.092 325.202C193.538 325.202 193.929 325.296 194.264 325.484C194.599 325.668 194.859 325.944 195.044 326.31C195.228 326.677 195.321 327.13 195.321 327.67V331.833H194.047V327.823C194.047 327.349 193.923 326.978 193.676 326.711C193.429 326.441 193.089 326.306 192.657 326.306C192.362 326.306 192.099 326.37 191.869 326.498C191.642 326.626 191.461 326.813 191.328 327.06C191.197 327.305 191.132 327.6 191.132 327.947Z" fill="white"/>
<defs>
<clipPath id="clip0_1_592">
<rect width="16" height="16" fill="white" transform="translate(109.381 80.083)"/>
</clipPath>
<clipPath id="clip1_1_592">
<rect width="334" height="14.5" fill="white" transform="translate(9.67053 175.833)"/>
</clipPath>
<clipPath id="clip2_1_592">
<rect width="311.09" height="14.5" fill="white" transform="translate(9.67053 223.833)"/>
</clipPath>
<clipPath id="clip3_1_592">
<rect width="16" height="16" fill="white" transform="translate(329.76 225.513)"/>
</clipPath>
<clipPath id="clip4_1_592">
<rect width="16" height="16" fill="white" transform="translate(9.67053 264.333)"/>
</clipPath>
</defs>
</svg>
