<svg width="98" height="26" viewBox="0 0 98 26" fill="none" xmlns="http://www.w3.org/2000/svg">
<path d="M0.0619429 25.333V1.76658H5.75793V11.7317H6.06862L13.8589 1.76658H20.5675L12.2134 12.284L20.7171 25.333H13.9049L8.03633 16.0698L5.75793 18.9466V25.333H0.0619429ZM27.7968 25.6322C26.6691 25.6322 25.668 25.4442 24.7935 25.0683C23.9266 24.6848 23.24 24.1094 22.7337 23.3423C22.2351 22.5675 21.9857 21.5971 21.9857 20.431C21.9857 19.4491 22.1583 18.6206 22.5036 17.9455C22.8488 17.2704 23.3244 16.7219 23.9304 16.3C24.5365 15.8781 25.2346 15.5597 26.0247 15.3449C26.8149 15.1224 27.6587 14.9728 28.5563 14.8961C29.5612 14.8041 30.3705 14.7082 30.9842 14.6084C31.598 14.501 32.0429 14.3515 32.3191 14.1597C32.6029 13.9602 32.7448 13.6802 32.7448 13.3197V13.2621C32.7448 12.6714 32.5415 12.215 32.135 11.8928C31.7284 11.5706 31.1799 11.4095 30.4894 11.4095C29.7453 11.4095 29.147 11.5706 28.6943 11.8928C28.2417 12.215 27.9541 12.6599 27.8313 13.2276L22.6416 13.0435C22.7951 11.9695 23.1901 11.0106 23.8269 10.1667C24.4713 9.3152 25.3535 8.64779 26.4735 8.1645C27.6012 7.67353 28.9552 7.42805 30.5355 7.42805C31.6632 7.42805 32.7026 7.56229 33.6539 7.83079C34.6051 8.09162 35.4336 8.47519 36.1394 8.9815C36.8452 9.48014 37.3898 10.0938 37.7734 10.8226C38.1646 11.5514 38.3603 12.3837 38.3603 13.3197V25.333H33.067V22.8705H32.9289C32.6144 23.4689 32.2117 23.9752 31.7207 24.3894C31.2374 24.8037 30.6659 25.1144 30.0062 25.3215C29.3541 25.5286 28.6176 25.6322 27.7968 25.6322ZM29.5344 21.9499C30.1404 21.9499 30.6851 21.8272 31.1684 21.5817C31.6593 21.3362 32.0506 20.9987 32.3421 20.5691C32.6336 20.1318 32.7793 19.6255 32.7793 19.0502V17.3701C32.6182 17.4545 32.4226 17.5312 32.1925 17.6003C31.97 17.6693 31.7245 17.7345 31.456 17.7959C31.1875 17.8573 30.9114 17.911 30.6275 17.957C30.3437 18.003 30.0714 18.0452 29.8105 18.0836C29.2812 18.168 28.8286 18.2984 28.4527 18.4748C28.0845 18.6512 27.8006 18.8814 27.6012 19.1652C27.4094 19.4414 27.3135 19.7713 27.3135 20.1548C27.3135 20.7379 27.5206 21.1828 27.9349 21.4897C28.3568 21.7965 28.89 21.9499 29.5344 21.9499ZM41.8009 25.333V7.65819H47.1516V10.9032H47.3473C47.7155 9.82918 48.3369 8.9815 49.2114 8.36012C50.0859 7.73874 51.1293 7.42805 52.3413 7.42805C53.5687 7.42805 54.6197 7.74257 55.4943 8.37162C56.3688 9.00067 56.925 9.84452 57.1628 10.9032H57.3469C57.6768 9.8522 58.3212 9.01218 59.2801 8.38313C60.239 7.74641 61.3705 7.42805 62.6747 7.42805C64.347 7.42805 65.7048 7.96504 66.7481 9.03903C67.7915 10.1054 68.3131 11.5706 68.3131 13.4347V25.333H62.6862V14.7235C62.6862 13.8413 62.4599 13.1701 62.0072 12.7098C61.5546 12.2418 60.9678 12.0078 60.2467 12.0078C59.4719 12.0078 58.862 12.261 58.417 12.7673C57.9798 13.266 57.7611 13.9372 57.7611 14.781V25.333H52.3528V14.666C52.3528 13.8451 52.1304 13.1969 51.6854 12.7213C51.2405 12.2457 50.6536 12.0078 49.9248 12.0078C49.4339 12.0078 49.0004 12.1268 48.6246 12.3646C48.2487 12.5947 47.9533 12.9246 47.7385 13.3542C47.5314 13.7838 47.4278 14.2901 47.4278 14.8731V25.333H41.8009ZM71.7997 25.333V7.65819H77.4267V25.333H71.7997ZM74.619 5.59843C73.8288 5.59843 73.1499 5.3376 72.5822 4.81595C72.0145 4.28662 71.7307 3.6499 71.7307 2.90578C71.7307 2.16932 72.0145 1.54027 72.5822 1.01862C73.1499 0.489296 73.8288 0.224634 74.619 0.224634C75.4168 0.224634 76.0957 0.489296 76.6557 1.01862C77.2234 1.54027 77.5072 2.16932 77.5072 2.90578C77.5072 3.6499 77.2234 4.28662 76.6557 4.81595C76.0957 5.3376 75.4168 5.59843 74.619 5.59843ZM89.2703 25.6667C87.4215 25.6667 85.8259 25.3023 84.4834 24.5735C83.1486 23.8371 82.1206 22.79 81.3995 21.4321C80.686 20.0666 80.3293 18.4441 80.3293 16.5646C80.3293 14.7389 80.6899 13.1432 81.411 11.7777C82.1321 10.4045 83.1486 9.33821 84.4604 8.57875C85.7722 7.81161 87.3179 7.42805 89.0977 7.42805C90.3558 7.42805 91.5065 7.62367 92.5498 8.0149C93.5931 8.40614 94.4945 8.98533 95.254 9.75247C96.0134 10.5196 96.6041 11.467 97.0261 12.5947C97.448 13.7147 97.6589 14.9997 97.6589 16.4496V17.8534H82.297V14.5854H92.4232C92.4156 13.9871 92.2736 13.4539 91.9975 12.9859C91.7213 12.518 91.3416 12.1536 90.8583 11.8928C90.3827 11.6243 89.8342 11.49 89.2128 11.49C88.5837 11.49 88.0199 11.632 87.5212 11.9158C87.0226 12.192 86.6275 12.5717 86.336 13.055C86.0445 13.5306 85.8911 14.0714 85.8757 14.6775V18.003C85.8757 18.7241 86.0176 19.357 86.3015 19.9017C86.5853 20.4387 86.9881 20.8568 87.5097 21.156C88.0314 21.4551 88.6528 21.6047 89.3739 21.6047C89.8725 21.6047 90.3251 21.5357 90.7317 21.3976C91.1383 21.2595 91.4873 21.0562 91.7788 20.7877C92.0704 20.5192 92.289 20.1894 92.4347 19.7981L97.6014 19.9477C97.3866 21.1061 96.9148 22.1149 96.186 22.9741C95.4649 23.8256 94.5175 24.4892 93.3438 24.9648C92.1701 25.4327 90.8123 25.6667 89.2703 25.6667Z" fill="#474747"/>
</svg>
